<?xml version="1.0" encoding="UTF-8"?><svg id="Layer_1" xmlns="http://www.w3.org/2000/svg" viewBox="0 0 275.91 41.86"><defs><style>.cls-1{fill:#f0b458;}</style></defs><path class="cls-1" d="M23.11.73l5.77,11.68c.19.39.56.65.99.72l12.89,1.87c1.07.16,1.5,1.48.73,2.23l-9.33,9.09c-.31.3-.45.73-.38,1.16l2.2,12.84c.18,1.07-.94,1.88-1.9,1.38l-11.53-6.06c-.38-.2-.84-.2-1.22,0l-11.53,6.06c-.96.5-2.08-.31-1.9-1.38l2.2-12.84c.07-.42-.07-.86-.38-1.16L.4,17.23c-.78-.76-.35-2.08.73-2.23l12.89-1.87c.43-.06.79-.33.99-.72L20.77.73c.48-.97,1.87-.97,2.35,0Z"/><path class="cls-1" d="M81.12.73l5.77,11.68c.19.39.56.65.99.72l12.89,1.87c1.07.16,1.5,1.48.73,2.23l-9.33,9.09c-.31.3-.45.73-.38,1.16l2.2,12.84c.18,1.07-.94,1.88-1.9,1.38l-11.53-6.06c-.38-.2-.84-.2-1.22,0l-11.53,6.06c-.96.5-2.08-.31-1.9-1.38l2.2-12.84c.07-.42-.07-.86-.38-1.16l-9.33-9.09c-.78-.76-.35-2.08.73-2.23l12.89-1.87c.43-.06.79-.33.99-.72l5.77-11.68c.48-.97,1.87-.97,2.35,0Z"/><path class="cls-1" d="M139.13.73l5.77,11.68c.19.39.56.65.99.72l12.89,1.87c1.07.16,1.5,1.48.73,2.23l-9.33,9.09c-.31.3-.45.73-.38,1.16l2.2,12.84c.18,1.07-.94,1.88-1.9,1.38l-11.53-6.06c-.38-.2-.84-.2-1.22,0l-11.53,6.06c-.96.5-2.08-.31-1.9-1.38l2.2-12.84c.07-.42-.07-.86-.38-1.16l-9.33-9.09c-.78-.76-.35-2.08.73-2.23l12.89-1.87c.43-.06.79-.33.99-.72l5.77-11.68c.48-.97,1.87-.97,2.35,0Z"/><path class="cls-1" d="M197.13.73l5.77,11.68c.19.39.56.65.99.72l12.89,1.87c1.07.16,1.5,1.48.73,2.23l-9.33,9.09c-.31.3-.45.73-.38,1.16l2.2,12.84c.18,1.07-.94,1.88-1.9,1.38l-11.53-6.06c-.38-.2-.84-.2-1.22,0l-11.53,6.06c-.96.5-2.08-.31-1.9-1.38l2.2-12.84c.07-.42-.07-.86-.38-1.16l-9.33-9.09c-.78-.76-.35-2.08.73-2.23l12.89-1.87c.43-.06.79-.33.99-.72l5.77-11.68c.48-.97,1.87-.97,2.35,0Z"/><path class="cls-1" d="M255.14.73l5.77,11.68c.19.39.56.65.99.72l12.89,1.87c1.07.16,1.5,1.48.73,2.23l-9.33,9.09c-.31.3-.45.73-.38,1.16l2.2,12.84c.18,1.07-.94,1.88-1.9,1.38l-11.53-6.06c-.38-.2-.84-.2-1.22,0l-11.53,6.06c-.96.5-2.08-.31-1.9-1.38l2.2-12.84c.07-.42-.07-.86-.38-1.16l-9.33-9.09c-.78-.76-.35-2.08.73-2.23l12.89-1.87c.43-.06.79-.33.99-.72l5.77-11.68c.48-.97,1.87-.97,2.35,0Z"/></svg>