<?xml version="1.0" encoding="UTF-8"?><svg id="Layer_1" xmlns="http://www.w3.org/2000/svg" viewBox="0 0 95.73 43"><defs><style>.cls-1{fill:#1d1f21;}</style></defs><path class="cls-1" d="M26.76,4.68c0,.4-.01.8-.03,1.2-.02.4-.06.91-.11,1.53-.06.62-.1,1.16-.14,1.62-.04.45-.09,1.07-.17,1.83s-.13,1.44-.17,2.02c-.04.58-.25,2.79-.65,6.63-.8,7.88-1.12,13.48-.93,16.81.04.25.04.58,0,.99-.04.4-.05.62-.05.65-.33.37-.93.44-1.81.22-.88-.22-1.37-.58-1.48-1.1-.18-.14-.27-.3-.27-.46s.07-1.63.22-4.41l.27-8.87-.71.05c-.73,0-2.35.15-4.87.44-2.52.29-4.09.53-4.71.71-.77,0-1.59.78-2.46,2.35-.22.55-.5,1.12-.85,1.72-.35.6-.52.94-.52,1.01l-.88,1.04c0,.4-.38,1.43-1.15,3.06-.69,1.57-1.81,3.52-3.34,5.86l-.88-.66c-.58-.29-.93-.61-1.04-.96s-.01-.89.3-1.64c.31-.75.8-1.77,1.48-3.06.68-1.29,1.63-3.12,2.85-5.47,1.22-2.35,1.84-3.72,1.84-4.08-.15-.55.13-.99.82-1.32.84-.84,1.53-1.73,2.08-2.68.44-1.02,2.35-4.42,5.75-10.18,1.35-2.41,3.08-5.04,5.2-7.88C21.19.54,21.92-.02,22.54,0c.62.02,1.37.36,2.25,1.01,1.13.84,1.77,1.75,1.91,2.74.04.22.06.53.06.93ZM21.83,20.44h.11c.07-.22.29-2.21.65-5.97.29-2.81.57-6.2.82-10.18-.37,0-1.23.91-2.6,2.74-1.37,1.82-2.58,3.78-3.64,5.86-.99,1.79-1.59,2.68-1.81,2.68-.26.25-.86,1.24-1.81,2.96-.95,1.71-1.33,2.65-1.15,2.79,1.35-.29,2.48-.45,3.39-.49,2.19-.51,3.6-.8,4.22-.88s1.06-.04,1.31.11c.18.26.35.38.49.38Z"/><path class="cls-1" d="M31.41,35.55l-.44,5.36c-.11,1.1-.29,1.77-.55,2.03-.33.22-.96-.22-1.91-1.31-.29-.33-.46-.64-.52-.93-.05-.29-.03-.91.08-1.86.18-.55.27-1.31.27-2.3,0-1.2.26-2.87.8-5.01.53-2.13.87-3.71,1.01-4.73.69-2.3,1.04-3.8,1.04-4.49s.26-1.19.77-1.48c.04-.29.31-.89.82-1.81,1.53-4.27,2.63-6.99,3.29-8.16.66-1.83,1.19-2.97,1.59-3.45.25-.62.95-1.53,2.08-2.74,1.13-1.2,2.14-2.17,3.01-2.9,1.35-.69,2.42-1.04,3.23-1.04s1.33.05,1.59.16c.4.11.88.44,1.42.99.48.55.76.91.85,1.1s.14.53.14,1.04c-.14.77-.51,1.75-1.09,2.96s-1.02,1.83-1.31,1.86c-.44.15-.76.1-.96-.14-.2-.24-.3-.63-.3-1.18l-.38-1.09c0-.55.13-1.01.38-1.37.18-.37.22-.64.11-.82-.11-.18-.35-.22-.71-.11-.33.18-1.14.83-2.44,1.94-1.3,1.12-1.95,1.78-1.95,2-.18.48-.53,1.02-1.04,1.64-.66.91-.99,1.54-.99,1.89s-.11.52-.33.52c-.14.51-.4,1.09-.76,1.75-.33.88-.7,1.52-1.1,1.92h.06c-.73,2.23-1.13,3.48-1.2,3.78.36-.04,1.11-.15,2.25-.36,1.13-.2,1.99-.34,2.57-.41,3.98-.47,6.81-1.07,8.48-1.81.48-1.17,1.08-2.51,1.81-4.02.73-1.52,1.22-2.42,1.48-2.71.62-.33,1.08-.47,1.37-.41.29.05.62.37.99.96.4.37.55.78.44,1.26-.11.4-1.01,2.21-2.68,5.42.44.07,1.02.07,1.75,0,1.17-.22,2.17-.27,3.01-.17,1.57,0,2.41.68,2.52,2.03.07.4,0,.64-.22.71-.22.07-1.64.16-4.27.25-2.63.09-3.96.21-4,.36-.36.26-.99,2.01-1.86,5.26-.44,2.01-.68,3.83-.71,5.48-.04,1.64.18,2.77.66,3.39.33.33.96.4,1.89.22.93-.18,1.79-.6,2.57-1.26.78-.65,1.4-.81,1.86-.46.45.35.32,1.03-.41,2.06-.66,1.02-1.54,1.81-2.66,2.35-1.11.55-2.1.7-2.96.46-.86-.24-1.74-.76-2.65-1.56-.66-.87-1.09-1.69-1.29-2.44-.2-.75-.3-1.67-.3-2.76s.14-2.28.44-3.56c.62-3.1,1.09-5.13,1.43-6.07-.33-.29-.9-.42-1.7-.38-.8.04-1.99.18-3.56.44-1.57.26-2.88.48-3.94.66-2.45.48-3.67.78-3.67.93-.37,0-.55.24-.55.71s-.08.91-.25,1.32c-.16.4-.48,1.52-.93,3.37-.46,1.84-.69,2.98-.69,3.42-.29.37-.44,1.02-.44,1.97-.22.4-.33.86-.33,1.37Z"/><path class="cls-1" d="M69.43,32.46c.09-.06.14-.08.16-.08.02,0,.06-.02.11-.06.05-.04.08-.07.08-.11.25-.22.57-.52.96-.9s.67-.57.85-.57.38.09.58.27.33.29.41.33c.58,0,.5.48-.25,1.42-.75.95-1.67,1.77-2.76,2.47-1.17,1.02-2.55,1.39-4.13,1.12-1.59-.27-2.85-1.07-3.8-2.38-1.13-1.43-1.55-3.71-1.26-6.84.14-2.04,1.02-4.13,2.63-6.27,1.6-2.14,3.3-3.55,5.09-4.24.51-.33.99-.5,1.42-.52.44-.02,1.18.05,2.22.19,1.04.14,1.85.58,2.44,1.31.91.91,1.37,1.97,1.37,3.18-.14.87-.71,1.88-1.7,3.01-.99,1.13-2.17,2.04-3.56,2.74-2.04.62-3.71.49-4.98-.38-.65-.25-1.1-.2-1.34.17s-.45,1.28-.63,2.74c-.29,2.52.31,3.9,1.81,4.16.14.04.36.08.65.14.29.05.49.09.58.11.09.02.25.04.46.05.22.02.4.01.55-.02.29-.07.58-.19.85-.36.27-.17.48-.29.63-.36.29-.14.49-.25.58-.3ZM69.51,23.62c.62-.25,1.25-.71,1.89-1.37.64-.66.96-1.23.96-1.73s-.26-.89-.77-1.2-1.11-.37-1.81-.19-1.4.6-2.14,1.26c-.73.65-1.33,1.31-1.81,1.94-.48.64-.66,1.01-.55,1.12.15.29.73.46,1.75.49s1.84-.07,2.46-.33Z"/><path class="cls-1" d="M79.94,35.34c-.38.51-.72.76-1.01.76s-.73-.29-1.31-.87c-.37-.29-.6-.57-.71-.82-.22-.51.15-2.79,1.1-6.84.11-.91.75-2.83,1.91-5.75s2.11-4.91,2.85-5.97c.73-.55,1.44-.47,2.14.22.36.29.44.78.22,1.48-.29.95-.89,2.4-1.78,4.35-.89,1.95-1.28,2.93-1.18,2.93s.27-.07.49-.22c.4-.69,1.38-1.64,2.93-2.84,1.55-1.21,2.53-1.91,2.93-2.11.4-.2.83-.39,1.28-.58s.72-.29.8-.33c.8-.4,1.65-.55,2.54-.44.89.11,1.45.44,1.67.99,0,.37.22.66.65.88l.27.33c0,.33-.48.52-1.42.57-.95.06-2.01.34-3.18.85-.14.11-.45.29-.9.52-.46.24-.77.41-.93.52s-.45.27-.85.49-.7.4-.9.55c-.2.15-.46.33-.79.55-.33.22-.61.42-.85.6-.24.18-.5.38-.8.6-1.13.95-2.19,2.26-3.17,3.94-.26.26-.52.92-.8,2s-.41,1.74-.41,2c-.14.58-.41,1.13-.79,1.64Z"/></svg>