<?xml version="1.0" encoding="UTF-8"?><svg id="Layer_1" xmlns="http://www.w3.org/2000/svg" viewBox="0 0 111.71 42.44"><defs><style>.cls-1{fill:#1d1f21;}</style></defs><path class="cls-1" d="M16.15.13s.22-.02.55-.05c.88-.07,1.68-.09,2.41-.06,2.45.22,4.34.93,5.69,2.14,1.35,1.2,2.01,2.81,1.97,4.82-.04.91-.68,2.25-1.91,4.02-1.24,1.77-2.59,3.31-4.05,4.63-1.46,1.31-2.5,2.11-3.12,2.41.04.04.73.29,2.08.77,3.06,1.09,4.96,3.1,5.69,6.02.36,1.61-.04,3.74-1.21,6.4l-.82,1.21c-.04.14-.37.7-.99,1.67s-1.17,1.75-1.64,2.33c-3.21,2.77-6.51,4.18-9.91,4.22-1.86,0-3.24-.29-4.13-.88s-1.6-1.08-2.11-1.48-.89-.8-1.15-1.2c-.51-.8-.29-1.5.66-2.08.37-.22,1.13.26,2.3,1.42,1.46,1.35,3.58,1.66,6.35.93,2.77-.84,5.2-2.55,7.28-5.15,1.06-1.39,1.69-3.01,1.89-4.87s0-3.06-.58-3.61c-2.04-2.81-5.22-3.65-9.52-2.52-.73.11-1.79.33-3.18.65-.51.15-.87.46-1.07.93s-1.04,2.79-2.52,6.95c-1.48,4.16-2.49,6.37-3.04,6.63-.37.14-.88-.24-1.53-1.15-.69-1.09-.73-2.17-.11-3.23.29-.47.58-1.26.88-2.35.48-1.42,1.85-4.96,4.13-10.62,2.28-5.65,3.97-9.73,5.06-12.21s1.46-3.78,1.09-3.88c0-.11-.06-.27-.17-.49-.11-.22-.14-.38-.11-.49,0-.22.51-.55,1.53-.99,1.02-.44,1.77-.62,2.24-.55.69,0,1.04-.09,1.04-.27ZM15.11,4.94c0,.55-.29,1.12-.87,1.7l-.49.99c0,.11-.31.86-.93,2.25-2.3,5.11-3.45,8.03-3.45,8.76,2.55-.44,4.22-.8,4.98-1.09.95-.55,1.71-1.09,2.3-1.64.58-.55,1.51-1.62,2.79-3.21,1.28-1.59,2.21-2.93,2.79-4.02.8-1.28,1.25-2.25,1.34-2.93s-.1-1.23-.57-1.67c-.44-.51-1.4-.8-2.87-.88-1.48-.07-2.66.04-3.53.33-.99.29-1.48.76-1.48,1.42Z"/><path class="cls-1" d="M37.8,31.91c.09-.06.14-.08.16-.08.02,0,.06-.02.11-.06.05-.04.08-.07.08-.11.25-.22.57-.52.96-.9s.67-.57.85-.57.38.09.58.27.33.29.41.33c.58,0,.5.48-.25,1.42-.75.95-1.67,1.77-2.76,2.47-1.17,1.02-2.55,1.39-4.13,1.12-1.59-.27-2.85-1.07-3.8-2.38-1.13-1.43-1.55-3.71-1.26-6.84.14-2.04,1.02-4.13,2.63-6.27,1.6-2.14,3.3-3.55,5.09-4.24.51-.33.99-.5,1.42-.52.44-.02,1.18.05,2.22.19,1.04.14,1.85.58,2.44,1.31.91.91,1.37,1.97,1.37,3.18-.14.87-.71,1.88-1.7,3.01-.99,1.13-2.17,2.04-3.56,2.74-2.04.62-3.71.49-4.98-.38-.65-.25-1.1-.2-1.34.17s-.45,1.28-.63,2.74c-.29,2.52.31,3.9,1.81,4.16.14.04.36.08.65.14.29.05.49.09.58.11.09.02.25.04.46.05.22.02.4.01.55-.02.29-.07.58-.19.85-.36.27-.17.48-.29.63-.36.29-.14.49-.25.58-.3ZM37.88,23.06c.62-.25,1.25-.71,1.89-1.37.64-.66.96-1.23.96-1.73s-.26-.89-.77-1.2-1.11-.37-1.81-.19-1.4.6-2.14,1.26c-.73.65-1.33,1.31-1.81,1.94-.48.64-.66,1.01-.55,1.12.15.29.73.46,1.75.49s1.84-.07,2.46-.33Z"/><path class="cls-1" d="M47.25,35l-.44,5.36c-.11,1.1-.29,1.77-.55,2.03-.33.22-.96-.22-1.91-1.31-.29-.33-.46-.64-.52-.93-.05-.29-.03-.91.08-1.86.18-.55.27-1.31.27-2.3,0-1.2.26-2.87.8-5.01.53-2.13.87-3.71,1.01-4.73.69-2.3,1.04-3.8,1.04-4.49s.26-1.19.77-1.48c.04-.29.31-.89.82-1.81,1.53-4.27,2.63-6.99,3.29-8.16.66-1.83,1.19-2.97,1.59-3.45.25-.62.95-1.53,2.08-2.74,1.13-1.2,2.14-2.17,3.01-2.9,1.35-.69,2.42-1.04,3.23-1.04s1.33.05,1.59.16c.4.11.88.44,1.42.99.48.55.76.91.85,1.1s.14.53.14,1.04c-.14.77-.51,1.75-1.09,2.96s-1.02,1.83-1.31,1.86c-.44.15-.76.1-.96-.14-.2-.24-.3-.63-.3-1.18l-.38-1.09c0-.55.13-1.01.38-1.37.18-.37.22-.64.11-.82-.11-.18-.35-.22-.71-.11-.33.18-1.14.83-2.44,1.94-1.3,1.12-1.95,1.78-1.95,2-.18.48-.53,1.02-1.04,1.64-.66.91-.99,1.54-.99,1.89s-.11.52-.33.52c-.14.51-.4,1.09-.76,1.75-.33.88-.7,1.52-1.1,1.92h.06c-.69,1.83-1.03,2.83-1.01,3.01.02.18.57.22,1.64.11,1.08-.11,2.02-.27,2.82-.49.8-.22,1.57-.24,2.3-.06.4.26.73.68.99,1.26.26.58.31.99.17,1.2-.14.4-2.08.95-5.8,1.64-2.45.48-3.67.78-3.67.93-.37,0-.55.24-.55.71s-.08.91-.25,1.32c-.16.4-.48,1.52-.93,3.37-.46,1.84-.69,2.98-.69,3.42-.29.37-.44,1.02-.44,1.97-.22.4-.33.86-.33,1.37Z"/><path class="cls-1" d="M77.73,19.61c0,.4.18.61.55.61.4.04-.14.6-1.64,1.7-.91.58-1.39.94-1.43,1.07-.04.13-.02.32.06.57.77,1.75-.03,3.94-2.38,6.57-2.35,2.63-4.79,4.09-7.31,4.38-.77.14-1.25.2-1.45.17-.2-.04-.5-.26-.9-.66-.8-.4-1.43-.98-1.89-1.72-.45-.75-.65-1.41-.57-2,.26-2.63,1.2-5.43,2.82-8.4,1.63-2.97,3.24-4.74,4.85-5.28,1.75-.69,2.91-.49,3.48.63.57,1.11.45,1.82-.36,2.11-.4,0-.6.16-.6.49.25.11,1,.07,2.25-.11,1.24-.18,2.01-.42,2.3-.71.29-.14.74-.14,1.34,0,.6.15.9.35.9.6ZM71.6,23.01c-.47,0-1.17-.37-2.08-1.09l-.88-1.09-.93.93c-.88.88-1.77,2.31-2.68,4.3-.91,1.99-1.41,3.39-1.48,4.19-.07.81-.01,1.31.19,1.51s.46.31.77.33c.31.02.9-.19,1.78-.63.48-.48.86-.77,1.15-.88.55,0,1.57-.97,3.06-2.9,1.61-1.79,2.28-3.16,2.03-4.11,0-.11-.13-.21-.38-.3-.26-.09-.44-.17-.55-.25Z"/><path class="cls-1" d="M89.07,18.63c1.75-1.24,3.07-1.86,3.97-1.86s1.52.35,1.89,1.04c.66,1.17.62,2.21-.11,3.12-.33.4-.75.71-1.26.93s-.88.33-1.09.33-.49-.17-.82-.49-.51-.61-.55-.82c0-.18-.51.14-1.53.96-1.02.82-1.7,1.4-2.03,1.72-.84,1.02-2.32,3.65-4.43,7.89-.22.44-.44.97-.66,1.59-.4,1.13-.71,1.73-.93,1.81-.22.07-.57.04-1.04-.11-1.86-.58-1.94-2.11-.22-4.6.25-.51.75-1.83,1.48-3.97.73-2.13,1.15-3.33,1.26-3.59.07-.62.04-1.06-.11-1.31-.18-.33-.48-.49-.88-.49s-.66-.02-.77-.05c-.29-.04-.44-.42-.44-1.15.07-.69.49-1.28,1.26-1.75,1.32-.69,2.35-.71,3.12-.06.48.33.71,1.53.71,3.61,1.9-1.6,2.96-2.52,3.18-2.74Z"/><path class="cls-1" d="M96.45,22.08l.93-.11c.51,0,.77.11.77.33.25.48.65.34,1.2-.38.18-.26.37-.57.55-.93.51-.8,1.27-1.65,2.27-2.54s1.83-1.52,2.49-1.89c1.13-.51,2.17-.72,3.12-.63.95.09,1.91.67,2.9,1.72.62.48.96,1.21,1.01,2.19s-.12,1.84-.52,2.57c-.14.55-.72,1.24-1.72,2.08s-1.92,1.42-2.76,1.75c-.77.18-1.73.3-2.9.36-1.17.05-1.94-.01-2.3-.19-.26-.14-.46.08-.6.69-.15.6-.27,1.44-.36,2.52s-.06,1.73.08,1.97c.14.24.29.41.44.52,1.28,1.32,2.63,1.39,4.05.22.44-.4.92-.88,1.45-1.43.53-.55.92-.93,1.18-1.15.29-.51.91-.64,1.86-.38.37.33.54.64.52.93s-.17.71-.44,1.26c-.27.55-.76,1.14-1.48,1.78-.71.64-1.34,1.14-1.89,1.51-1.94,1.02-3.87,1.17-5.8.44-1.43-.58-2.35-1.4-2.77-2.44-.42-1.04-.54-2.38-.36-4.02s.25-2.66.22-3.06-.15-.69-.36-.88-.39-.37-.57-.55c-.4-.4-.62-.72-.66-.96-.04-.24-.01-.51.08-.82s.21-.47.36-.47ZM108.5,19.12c-.55-.62-1.37-.53-2.46.27-.37.11-.9.51-1.62,1.2-.71.7-1.32,1.38-1.83,2.06-.51.68-.68,1.07-.49,1.18-.04.07,0,.13.14.17.13.04.29.06.49.08.2.02.39.04.57.06s.36.02.52,0,.53-.07,1.09-.17.92-.17,1.07-.22c.15-.06.4-.19.77-.41.44-.25,1.08-.99,1.92-2.19.25-.99.2-1.66-.17-2.03Z"/></svg>