<?xml version="1.0" encoding="UTF-8"?><svg id="Layer_1" xmlns="http://www.w3.org/2000/svg" viewBox="0 0 734.53 790.28"><defs><style>.cls-1{fill:#1d1f21;}</style></defs><path class="cls-1" d="M663.85,55.78h-92.04V18.59c0-10.27-8.33-18.59-18.59-18.59s-18.59,8.33-18.59,18.59v37.19H172.02V18.59c0-10.27-8.33-18.59-18.59-18.59s-18.59,8.33-18.59,18.59v37.19h-64.15C30.67,56.9-.92,90.15.02,130.16v585.74c-.94,40.02,30.65,73.26,70.66,74.38h593.17c40.01-1.12,71.6-34.36,70.66-74.38V130.16c.94-40.02-30.65-73.26-70.66-74.38ZM697.32,715.9c.95,19.49-13.99,36.09-33.47,37.19H70.68c-19.48-1.1-34.42-17.7-33.47-37.19V241.73h660.11v474.17ZM697.32,204.54H37.21v-74.38c-.95-19.49,13.99-36.09,33.47-37.19h64.15v46.49c0,10.27,8.33,18.59,18.59,18.59s18.59-8.33,18.59-18.59v-46.49h362.6v46.49c0,10.27,8.33,18.59,18.59,18.59s18.59-8.33,18.59-18.59v-46.49h92.04c19.48,1.1,34.42,17.7,33.47,37.19v74.38Z"/><path class="cls-1" d="M323.2,455.57c3.09,5.39,8.68,8.88,14.88,9.3h1.3c5.79.02,11.25-2.67,14.78-7.25l92.97-120.87c6.26-8.16,4.72-19.86-3.44-26.13-8.16-6.26-19.86-4.72-26.13,3.44l-75.87,98.74-23.34-40.91c-5.13-8.93-16.54-12.01-25.47-6.88-8.93,5.13-12.01,16.54-6.88,25.47l37.19,65.08Z"/><path class="cls-1" d="M127.95,455.57c3.09,5.39,8.68,8.88,14.88,9.3h1.3c5.79.02,11.25-2.67,14.78-7.25l92.97-120.87c6.26-8.16,4.72-19.86-3.44-26.13-8.16-6.26-19.86-4.72-26.13,3.44l-75.87,98.74-23.34-40.91c-5.13-8.93-16.54-12.01-25.47-6.88-8.93,5.13-12.01,16.54-6.88,25.47l37.19,65.08Z"/><path class="cls-1" d="M518.44,455.57c3.09,5.39,8.68,8.88,14.88,9.3h1.3c5.79.02,11.25-2.67,14.78-7.25l92.97-120.87c6.26-8.16,4.72-19.86-3.44-26.13-8.16-6.26-19.86-4.72-26.13,3.44l-75.87,98.74-23.34-40.91c-5.13-8.93-16.54-12.01-25.47-6.88-8.93,5.13-12.01,16.54-6.88,25.47h0l37.19,65.08Z"/><path class="cls-1" d="M323.2,669.41c3.09,5.39,8.68,8.88,14.88,9.3h1.3c5.79.02,11.25-2.67,14.78-7.25l92.97-120.87c6.26-8.16,4.72-19.86-3.44-26.13-8.16-6.26-19.86-4.72-26.13,3.44h0l-75.87,98.74-23.34-40.91c-5.13-8.93-16.54-12.01-25.47-6.88-8.93,5.13-12.01,16.54-6.88,25.47l37.19,65.08Z"/><path class="cls-1" d="M127.95,669.41c3.09,5.39,8.68,8.88,14.88,9.3h1.3c5.79.02,11.25-2.67,14.78-7.25l92.97-120.87c6.26-8.16,4.72-19.86-3.44-26.13-8.16-6.26-19.86-4.72-26.13,3.44h0l-75.87,98.74-23.34-40.91c-5.13-8.93-16.54-12.01-25.47-6.88-8.93,5.13-12.01,16.54-6.88,25.47l37.19,65.08Z"/><path class="cls-1" d="M518.44,669.41c3.09,5.39,8.68,8.88,14.88,9.3h1.3c5.79.02,11.25-2.67,14.78-7.25l92.97-120.87c6.26-8.16,4.72-19.86-3.44-26.13-8.16-6.26-19.86-4.72-26.13,3.44h0l-75.87,98.74-23.34-40.91c-5.13-8.93-16.54-12.01-25.47-6.88-8.93,5.13-12.01,16.54-6.88,25.47l37.19,65.08Z"/></svg>