<?xml version="1.0" encoding="UTF-8"?><svg id="Layer_1" xmlns="http://www.w3.org/2000/svg" viewBox="0 0 790.28 790.28"><defs><style>.cls-1{fill:#f3828e;}.cls-2{fill:#fff;}</style></defs><circle class="cls-2" cx="297.02" cy="420.97" r="98.31"/><circle class="cls-1" cx="395.14" cy="395.14" r="395.14"/><path class="cls-2" d="M107.38,418.68c-22.14-.93-39.86-19.36-38.93-41.63.55-13.34,7.44-24.69,17.66-31.35l8.27,12.46c-6.46,4.19-10.61,10.64-10.96,18.97-.6,14.26,10.59,25.1,24.62,25.7,14.03.62,26.2-9.17,26.8-23.43.36-8.43-3.25-15.23-9.34-19.94l9.3-11.71c9.62,7.48,15.53,19.37,14.97,32.73-.93,22.24-20.04,39.13-42.39,38.19Z"/><path class="cls-2" d="M169.22,292.94l-19.88-.25-9.82,27.77,15.65,12.18-5.65,15.93-64.32-53.9,5.7-16.15,83.87-1.28-5.56,15.7ZM128.06,311.43l6.71-18.91-31.44-.51,24.73,19.42Z"/><path class="cls-2" d="M203.09,239.42l-33.87-1.51-3.15,4.36,22.82,16.64-9.38,12.82-63.63-46.41,18.52-25.38c10.64-14.6,25.56-13.33,36-5.72,9.05,6.6,13.26,19.44,8.29,29.53l35.36.61-10.97,15.06ZM136.61,220.78l19.11,13.94,7.48-10.26c5.25-7.19,3.13-13.43-1.94-17.12-5.1-3.71-12.05-3.83-16.43,2.17l-8.22,11.27Z"/><path class="cls-2" d="M254.59,163.23c6.7,8.54,8.03,22.27-5.61,33l-26.41,20.71-48.55-61.88,24.52-19.24c11.05-8.67,23.36-7.58,30.69,1.76,3.6,4.56,6.67,12.18,1.55,19.52,8.96-4.83,18.32-.87,23.82,6.13ZM206.49,147.44l-11.32,8.89,10.63,13.54,11.32-8.89c3.96-3.08,4.35-7.59,1.02-11.83-2.95-3.77-7.25-5.2-11.65-1.71ZM238.52,186.6c5.83-4.59,5.76-10.59,2.5-14.76-3.02-3.86-8.8-5.86-14.72-1.19l-12.31,9.65,12.39,15.81,12.14-9.51Z"/><path class="cls-2" d="M266.83,156.52l14.71-5.98c2.22,5.13,9.05,7.38,15.82,4.61,6.56-2.64,9.43-8.02,7.32-13.2-1.65-4.04-5.78-5.67-12.79-5.03l-9.9,1.09c-17.68,2.31-24.48-6.18-27.15-12.73-5.31-13,2.24-26.56,16.19-32.24,13.75-5.62,27.73-1.59,33.38,12.27l-14.69,6c-2.11-5.18-7.35-7.74-13.69-5.13-5.7,2.31-8.49,7.9-6.51,12.77.74,1.79,2.77,5.27,11.29,4.38l9.1-1.01c12.33-1.2,24.23.46,29.28,12.84,5.92,14.47-3.2,27.47-16.95,33.07-15.55,6.35-30.15,1.08-35.38-11.71Z"/><path class="cls-2" d="M412.78,148.69l-6.61-18.8-29.48.34-6.07,18.94-16.9.2,28.47-79.06,17.14-.19,30.13,78.4-16.68.18ZM381.23,116.39l20.11-.23-10.39-29.74-9.71,29.96Z"/><path class="cls-2" d="M474.15,161.75l-10.4-32.19-5.19-1.48-7.62,27.16-15.27-4.28,21.25-75.75,30.24,8.48c17.37,4.88,21.4,19.3,17.9,31.69-3.02,10.78-13.57,19.23-24.75,18.1l11.77,33.32-17.93-5.05ZM468.4,93l-6.37,22.77,12.19,3.42c8.59,2.42,13.67-1.74,15.37-7.78,1.68-6.06-.63-12.62-7.76-14.64l-13.42-3.77Z"/><path class="cls-2" d="M522.99,168.68l29.52,17.87-7.27,12-43.09-26.06,40.75-67.32,42.2,25.52-7.27,12.03-28.63-17.32-9.69,16.03,25.11,15.19-7.41,12.2-25.1-15.2-9.12,15.06Z"/><path class="cls-2" d="M595.83,230.18l18.59,23.26-10.96,8.79-28.51-35.69,61.45-49.12,9.92,12.4-50.49,40.36Z"/><path class="cls-2" d="M608.22,272.56l69.4-37.06,7.47,14-69.41,37.04-7.47-13.98Z"/><path class="cls-2" d="M699.78,330.12l-9.6-31.32-18.11,5.58,7.62,24.86-13.3,4.09-7.64-24.88-30.34,9.3-4.63-15.15,75.18-23.06,14.26,46.49-13.44,4.1Z"/><path class="cls-2" d="M654.22,375.28l1.67,34.48-14.02.68-2.45-50.33,78.62-3.78,2.39,49.28-14.03.68-1.62-33.43-18.71.91,1.43,29.32-14.28.68-1.41-29.3-17.58.82Z"/><path class="cls-2" d="M108.07,488.63c9.37-3.67,19.17,1.33,22.75,10.45,3.59,9.15-.18,19.56-9.53,23.25-9.37,3.67-19.21-1.43-22.79-10.56-3.59-9.17.22-19.5,9.57-23.14Z"/><path class="cls-2" d="M149.41,591.52l18.75,23.13-10.9,8.86-28.77-35.48,61.09-49.56,9.99,12.31-50.17,40.73Z"/><path class="cls-2" d="M174.19,638.58l51.54-59.44,12,10.41-51.58,59.41-11.97-10.37Z"/><path class="cls-2" d="M294.51,625.9l-7.09,12.12-18.74-10.93-32.61,55.81-13.71-8.02,32.61-55.84-18.74-10.93,7.08-12.11,51.21,29.91Z"/><path class="cls-2" d="M297.65,694.39l33.03,9.86-4.01,13.47-48.23-14.42,22.52-75.34,47.23,14.11-4.02,13.44-32.03-9.58-5.36,17.96,28.11,8.4-4.09,13.65-28.1-8.37-5.04,16.83Z"/><path class="cls-2" d="M395.33,724l-17.59-28.93-5.37-.21-1.12,28.19-15.88-.64,3.15-78.63,31.37,1.22c18.05.74,25.29,13.83,24.77,26.7-.42,11.22-8.74,21.85-19.89,23.35l19.19,29.7-18.63-.76ZM373.83,658.44l-.94,23.63,12.66.51c8.91.34,12.89-4.88,13.14-11.17.25-6.25-3.52-12.13-10.95-12.41l-13.91-.56Z"/><path class="cls-2" d="M490.84,710.16l-10.53-16.86-28.69,6.74-1.78,19.79-16.47,3.85,10.54-83.31,16.67-3.91,46.47,69.86-16.22,3.83ZM453.02,685.51l19.56-4.59-16.61-26.7-2.95,31.29Z"/><path class="cls-2" d="M535.55,676.46l26.47-13.69,6.45,12.52-40.58,20.92-36.09-69.88,14.09-7.29,29.65,57.43Z"/><path class="cls-2" d="M591.9,640.2l23.13-18.76,8.86,10.89-35.47,28.79-49.57-61.12,12.33-10,40.72,50.21Z"/><path class="cls-2" d="M602.05,535.97l11.8-14.71,14.54,50.93,27.7,22.21-9.93,12.41-27.9-22.39-52.6-3.1,11.88-14.78,35.49,3.56-10.98-34.14Z"/><path class="cls-2" d="M671.99,514.24c-9.47-3.36-13.58-13.56-10.27-22.83,3.3-9.26,13.01-14.63,22.47-11.27,9.47,3.4,13.55,13.71,10.25,22.95-3.32,9.27-12.97,14.57-22.45,11.15Z"/><path class="cls-2" d="M477.22,538.04l-159.51,1.19c-20.24.15-37.41-14.87-39.98-34.9l-11.44-110.04c-.21-2.24-1.84-4.27-4.33-5.49-13.43-6.52-21.82-19.84-21.93-34.75l-.06-8c-.31-42.2,29.14-78.47,70.04-86.26,54.84-10.41,110.9-10.88,166.55-1.38,41.97,7.21,72.67,43.14,72.99,85.52l.06,7.86c.11,14.67-7.89,27.97-20.89,34.78-2.37,1.21-3.83,3.22-4.01,5.36l-7.99,109.61c-1.89,20.73-18.92,36.34-39.55,36.49h.05ZM393.54,270.7c-26.81.2-53.52,2.83-79.96,7.84-31.87,6.05-54.8,34.42-54.56,67.42l.06,8c.06,7.62,4.35,14.4,11.18,17.73,8.46,4.13,14.04,11.8,14.97,20.66l11.44,109.8c1.32,10.28,10.33,18.12,20.9,18.04l159.51-1.19c10.81-.08,19.71-8.24,20.67-19.02l8-109.47c.65-8.77,5.93-16.57,14.18-20.87,6.64-3.48,10.69-10.27,10.63-17.75l-.06-7.86c-.25-33.1-24.27-61.26-57.13-66.88-26.56-4.52-53.25-6.7-79.83-6.5v.05ZM340.36,324.3c-6.57.05-11.87,5.42-11.82,12,.05,6.57,5.42,11.87,12,11.82,6.57-.05,11.87-5.42,11.82-12-.05-6.57-5.42-11.87-12-11.82ZM454.84,347.26c-6.57.05-11.87,5.42-11.82,12,.05,6.57,5.42,11.87,12,11.82,6.57-.05,11.87-5.42,11.82-12-.05-6.57-5.42-11.87-12-11.82ZM341.1,424.32c-6.57.05-11.87,5.42-11.82,12,.05,6.57,5.42,11.87,12,11.82,6.57-.05,11.87-5.42,11.82-12-.05-6.57-5.42-11.87-12-11.82ZM436.65,461.71c-6.57.05-11.87,5.42-11.82,12,.05,6.57,5.42,11.87,12,11.82,6.57-.05,11.87-5.42,11.82-12-.05-6.57-5.42-11.87-12-11.82Z"/></svg>