<?xml version="1.0" encoding="UTF-8"?><svg id="Layer_1" xmlns="http://www.w3.org/2000/svg" viewBox="0 0 789.58 773.53"><defs><style>.cls-1{fill:#f9f9f9;}</style></defs><path class="cls-1" d="M676.98,112.22c-146.92-146.49-383.56-150-534.75-7.93l6.04-59.78c1.04-10.43-6.56-19.72-16.99-20.77-10.43-1.04-19.72,6.56-20.77,16.99l-10.82,108.11c-1.09,10.3,6.38,19.53,16.68,20.62.06,0,.13.01.19.02l107.98,10.95h1.89c10.43.52,19.3-7.51,19.82-17.93.52-10.43-7.51-19.3-17.93-19.82h0l-65.07-6.54C299.87,2.24,519.15,4.46,653.04,141.08c109.81,112.06,130.58,283.93,50.63,418.92-5.33,8.88-2.45,20.4,6.43,25.73.04.02.08.05.12.07,2.94,1.72,6.28,2.63,9.69,2.64,6.65.01,12.82-3.48,16.24-9.19,89.22-150.93,64.88-343.13-59.15-467.05Z"/><path class="cls-1" d="M672.71,604.18l-107.98-10.95c-10.37-.95-19.58,6.63-20.64,16.99-1.09,10.3,6.38,19.53,16.68,20.62.06,0,.13.01.19.02l65.07,6.54c-136.88,133.62-356.16,130.98-489.78-5.9C26.99,519.6,6.29,348.37,85.72,213.65c5.33-8.88,2.45-20.4-6.43-25.73-.04-.02-.08-.05-.12-.07-8.97-5.3-20.54-2.38-25.93,6.54C-54.45,377.16,6.39,612.63,189.15,720.33c147.04,86.65,333.61,65.89,458.01-50.96l-6.04,59.78c-1.02,10.35,6.52,19.58,16.86,20.64h2.01c9.68-.02,17.78-7.36,18.75-16.99l10.82-108.11c1.02-10.31-6.51-19.49-16.81-20.51-.02,0-.03,0-.05,0Z"/></svg>