<?xml version="1.0" encoding="UTF-8"?><svg id="Layer_1" xmlns="http://www.w3.org/2000/svg" viewBox="0 0 790.55 793.22"><defs><style>.cls-1{fill:#0d0d10;}</style></defs><path class="cls-1" d="M709.79,587.61h-50.12v-26.01h30.65c40.97-.12,74.15-33.35,74.19-74.31v-3.43c0-5.73-2.26-11.17-6.29-15.2-4.03-4.03-9.52-6.33-15.2-6.33h-68.18c12.26-13.91,22.1-29.8,29.15-46.98,43.02-97.54-18.39-143.35-38.39-155.04-15.24-8.43-33.31-10.2-49.88-4.96l-4.19.65c1.29-12.78,5.36-31.17,16.13-37.54,4.84-3.06,6.41-9.44,3.51-14.43-2.86-5-9.15-6.81-14.27-4.15-21.49,12.46-25.81,41.73-26.9,57.22-2.74-.2-5.48-.65-8.15-1.41h-2.26V120.85c0-17.82-14.48-32.26-32.26-32.26h-114.43c-2.5-9.35-10.97-15.85-20.64-15.93h-38.47C367.78,30.97,332.05,0,289.92,0s-77.9,30.97-83.87,72.66h-38.71c-9.68.08-18.14,6.57-20.64,15.93H32.26C14.48,88.59,0,103.02,0,120.85v640.12c0,17.78,14.48,32.26,32.26,32.26h736.76c5.73,0,11.17-2.3,15.2-6.33,4.03-4.03,6.33-9.48,6.33-15.2v-103.31c-.08-44.6-36.21-80.72-80.76-80.76h0ZM638.18,587.61h-80.44v-26.01h80.44v26.01ZM743.01,487.29c0,29.11-23.59,52.74-52.7,52.78h-184.6c-29.15,0-52.82-23.63-52.82-52.78v-3.43h290.32l-.2,3.43ZM595.16,278.39l12.9-.65c4.4-.08,8.75-.6,13.02-1.61,11.05-3.67,23.1-2.7,33.43,2.66,20.52,12.14,64.52,48.83,29.56,127.86-22.7,51.09-42.14,56.57-56.45,55.48h-55.04c-1.01-.16-2.06-.16-3.1,0h-6.33c-11.29,0-30.2-7.42-51.73-55.68-35.04-79.03,9.03-115.68,29.68-127.86,10.69-5.44,23.06-6.33,34.39-2.46,6.41,1.85,13.06,2.62,19.68,2.26h0ZM557.86,120.84v131.74c-9.68.16-19.15,2.82-27.54,7.74l-4.72,3.02v-99.47c0-5.73-2.26-11.17-6.29-15.2-4.03-4.03-9.52-6.33-15.2-6.33h-70.32v-32.26h113.31c2.86,0,5.6,1.13,7.62,3.15,2.02,2.02,3.15,4.76,3.15,7.62h0ZM167.1,94.19h38.71c10.77.08,19.96-7.74,21.53-18.39,4.48-31.13,31.13-54.23,62.58-54.23s58.1,23.1,62.58,54.23c1.53,10.64,10.73,18.47,21.49,18.39h38.83v65.89h-245.73v-65.89ZM412.26,181.61c10.69.12,19.88-7.62,21.53-18.19h70.77l-.04,118.18c-21.49,23.87-41.93,66.57-12.06,133.75h.04c6.98,17.14,16.73,33.02,28.91,46.98h-68.51c-11.85,0-21.49,9.64-21.49,21.53v3.43c.04,41.01,33.31,74.23,74.31,74.31h30.52v26.01h-50.12c-44.56.04-80.68,36.17-80.72,80.76v49.56H75.29V163.86h70.64c1.65,10.56,10.81,18.31,21.49,18.14l244.83-.4ZM21.53,760.96V120.84c0-5.93,4.8-10.77,10.73-10.77h113.34v32.26h-70.32c-11.89,0-21.49,9.64-21.49,21.53v554.07c0,5.69,2.26,11.17,6.29,15.2,4.03,4.03,9.52,6.29,15.2,6.29h330.11v32.26H32.26c-5.93,0-10.73-4.8-10.73-10.73h0ZM426.9,771.72v-103.35c0-32.74,26.53-59.27,59.23-59.27h223.67c15.73,0,30.77,6.25,41.89,17.38,11.13,11.09,17.34,26.17,17.34,41.89v102.78l-342.13.57Z"/><path class="cls-1" d="M686.89,646.84h-177.86c-23.75,0-42.98,19.27-42.98,43.02s19.23,43.02,42.98,43.02h177.86c23.75,0,43.02-19.27,43.02-43.02s-19.27-43.02-43.02-43.02ZM686.89,711.36h-177.86c-11.85,0-21.49-9.6-21.49-21.49s9.64-21.49,21.49-21.49h177.86c11.89,0,21.49,9.6,21.49,21.49s-9.6,21.49-21.49,21.49Z"/><path class="cls-1" d="M375.72,114.28h-172.05c-5.93,0-10.77,4.84-10.77,10.77s4.84,10.77,10.77,10.77h172.05c5.93,0,10.73-4.84,10.73-10.77s-4.8-10.77-10.73-10.77Z"/><path class="cls-1" d="M122.7,248.71c-2.02,2.02-3.19,4.76-3.19,7.62s1.17,5.6,3.19,7.62l16.77,16.77c4.03,4.03,9.52,6.33,15.2,6.33s11.21-2.3,15.24-6.33l38.39-38.39c4.19-4.19,4.19-11.05,0-15.24-4.23-4.23-11.05-4.23-15.28,0l-38.39,38.39-16.65-16.77c-2.02-2.06-4.8-3.19-7.66-3.19s-5.6,1.13-7.62,3.19h0Z"/><path class="cls-1" d="M250.44,244.71h198.58c5.97,0,10.77-4.8,10.77-10.77s-4.8-10.73-10.77-10.73h-198.58c-5.93,0-10.77,4.8-10.77,10.73s4.84,10.77,10.77,10.77Z"/><path class="cls-1" d="M250.44,287.82h198.58c5.97,0,10.77-4.8,10.77-10.73s-4.8-10.77-10.77-10.77h-198.58c-5.93,0-10.77,4.8-10.77,10.77s4.84,10.73,10.77,10.73Z"/><path class="cls-1" d="M139.48,386.45c4.03,4.03,9.52,6.29,15.2,6.29s11.21-2.26,15.24-6.29l38.39-38.39c4.19-4.23,4.19-11.05,0-15.28-4.23-4.23-11.05-4.23-15.28,0l-38.39,38.39-16.65-16.77c-4.23-4.23-11.05-4.23-15.28,0-4.23,4.23-4.23,11.05,0,15.28l16.77,16.77Z"/><path class="cls-1" d="M250.44,350.4h198.58c5.97,0,10.77-4.8,10.77-10.73s-4.8-10.77-10.77-10.77h-198.58c-5.93,0-10.77,4.8-10.77,10.77s4.84,10.73,10.77,10.73Z"/><path class="cls-1" d="M250.44,393.54h198.58c5.97,0,10.77-4.84,10.77-10.77s-4.8-10.77-10.77-10.77h-198.58c-5.93,0-10.77,4.84-10.77,10.77s4.84,10.77,10.77,10.77Z"/><path class="cls-1" d="M139.48,492.13c4.03,4.03,9.52,6.29,15.2,6.29s11.21-2.26,15.24-6.29l38.39-38.39c4.19-4.23,4.19-11.05,0-15.28-4.23-4.19-11.05-4.19-15.28,0l-38.39,38.39-16.65-16.77c-4.23-4.19-11.05-4.19-15.28,0-4.23,4.23-4.23,11.05,0,15.28l16.77,16.77Z"/><path class="cls-1" d="M250.44,456.13h149.8c5.93,0,10.73-4.84,10.73-10.77s-4.8-10.77-10.73-10.77h-149.8c-5.93,0-10.77,4.84-10.77,10.77s4.84,10.77,10.77,10.77Z"/><path class="cls-1" d="M250.44,499.11h137.62c5.97,0,10.77-4.8,10.77-10.73s-4.8-10.77-10.77-10.77h-137.62c-5.93,0-10.77,4.8-10.77,10.77s4.84,10.73,10.77,10.73Z"/><path class="cls-1" d="M208.31,658.9h-23.35v-39.48c0-5.69-2.26-11.17-6.29-15.2-4.03-4.03-9.52-6.29-15.2-6.29h-22.38c-11.89,0-21.49,9.64-21.49,21.49v39.48h-5.81c-5.97,0-10.77,4.8-10.77,10.77s4.8,10.73,10.77,10.73h254.51c5.93,0,10.73-4.8,10.73-10.73s-4.8-10.77-10.73-10.77h-5.28v-70.64c0-5.69-2.26-11.17-6.29-15.2-4.03-4.03-9.52-6.29-15.2-6.29h-22.9c-11.89,0-21.53,9.6-21.53,21.49v70.64h-23.31v-91.61c0-5.69-2.3-11.17-6.33-15.2-4.03-4.03-9.48-6.29-15.2-6.29h-22.46c-11.89,0-21.49,9.6-21.49,21.49v91.61ZM141.09,619.42h22.38v39.48h-22.38v-39.48ZM318.63,588.26h22.9v70.64h-22.9v-70.64ZM252.26,567.29v91.61h-22.46v-91.61h22.46Z"/><path class="cls-1" d="M621.84,316.2c20.04,10.69,31.25,32.82,27.94,55.28-.44,5.89,3.99,11.05,9.88,11.49h.89c5.65.04,10.36-4.35,10.73-10,3.99-31.57-12.34-62.22-40.73-76.53-5.36-2.02-11.37.52-13.63,5.73-2.3,5.24-.08,11.37,5,13.95l-.08.08Z"/></svg>