<?xml version="1.0" encoding="UTF-8"?><svg id="Layer_1" xmlns="http://www.w3.org/2000/svg" viewBox="0 0 790.54 790.62"><defs><style>.cls-1,.cls-2{fill:#0d0d10;}.cls-2{fill-rule:evenodd;}</style></defs><path class="cls-2" d="M662.04,0c27.11,0,43.56,29.99,28.96,52.85l-122.45,192.22c-12.67,19.94-19.38,43.01-19.38,66.64,0,2.15-.09,4.34-.26,6.44,16.5,9.88,29.69,25.31,36.6,44.47l39.61,109.47c3.44,9.45,9.5,17.66,17.53,23.67l113.51,85.2c21.65,16.2,34.37,41.68,34.37,68.7v55.04c0,47.47-38.45,85.93-85.93,85.93h-112.35c-26.29,0-52.2-6.7-75.19-19.51l-351.66-195.61c-23.46-13.06-33-41.93-21.91-66.38l43.31-95.38c3.22-7.09,9.19-11.94,16.03-14.05l14.74-40.86c4.85-13.53,10.7-26.64,17.49-39.31l30.68-57.14c8.59-15.98,26.51-21.31,41.42-16.28,1.29-6.23,3.05-12.42,5.37-18.56L389.63,22.31C394.66,8.9,407.51,0,421.81,0h240.22ZM539.59,226.63c-15.29,23.93-23.8,51.56-24.7,79.87-7.39-.86-14.99-.77-22.68.34l-97.44,14.31c-20.71,3.05-41.03-6.7-51.69-24.4-5.63-17.92-5.59-37.89,1.63-57.14l77.12-205.24h240.21l-122.45,192.26ZM756.16,687.5h-136.33c-15.04,0-29.77-3.95-42.79-11.43l-145.39-83.52-18.95-10.74c-2.71-1.55-5.28-3.22-7.73-5.03-13.75-10.01-23.76-24.4-28.27-40.95-.99-3.65-2.49-7.17-4.47-10.35-3.78-5.8-8.98-10.61-15.25-13.92l-125.45-66.25-17.23-8.98-39.48,87c-3.69,8.12-.52,17.74,7.3,22.13l351.66,195.61c17.87,9.92,38.02,15.17,58.47,15.17h112.35c28.48,0,51.56-23.07,51.56-51.56v-17.18ZM756.16,653.13v-3.48c0-16.2-7.65-31.49-20.62-41.2l-113.51-85.2c-9.92-7.43-18.09-16.93-23.97-27.8l-41.98,17.14c-8.51,3.48-18.39-1.07-22.04-10.14-3.69-9.07.26-19.25,8.76-22.73l42.32-17.23-18.9-52.24c-.99.69-2.06,1.29-3.22,1.76l-55.25,22.51c-8.55,3.48-18.39-1.07-22.04-10.14-3.69-9.07.26-19.25,8.76-22.68l55.25-22.56c1.59-.64,3.22-1.03,4.81-1.12l-1.33-3.74c-8.33-23.03-31.75-37.03-55.98-33.47l-97.44,14.35c-37.25,5.46-73.73-13.92-90.01-47.91l-13.75-28.66-30.68,57.18c-6.01,11.13-11.17,22.73-15.47,34.67l-13.79,38.41,11.43,6.01,124.81,65.26c12.03,6.32,22,15.68,29,26.98,4,6.23,7.09,13.02,9.11,20.24,2.49,8.72,7.73,16.33,14.91,21.7,1.07.77,2.23,1.5,3.44,2.19l19.94,11.47,131.38,74.67c18.13,10.31,38.62,15.72,59.46,15.72h116.6Z"/><path class="cls-1" d="M0,171.94c0-9.5,7.69-17.19,17.19-17.19h197.64c9.5,0,17.19,7.69,17.19,17.19s-7.69,17.19-17.19,17.19H17.19C7.69,189.13,0,181.44,0,171.94Z"/><path class="cls-1" d="M0,352.39c0-9.5,7.69-17.19,17.19-17.19h90.22c9.49,0,17.19,7.69,17.19,17.19s-7.69,17.19-17.19,17.19H17.19c-9.49,0-17.19-7.69-17.19-17.19Z"/><path class="cls-1" d="M17.19,515.65C7.7,515.65,0,523.34,0,532.84s7.69,17.19,17.19,17.19h42.96c9.49,0,17.19-7.69,17.19-17.19s-7.69-17.19-17.19-17.19H17.19Z"/><path class="cls-1" d="M17.19,696.1C7.7,696.1,0,703.79,0,713.28s7.69,17.19,17.19,17.19h214.82c9.5,0,17.19-7.69,17.19-17.19s-7.69-17.19-17.19-17.19H17.19Z"/></svg>