<?xml version="1.0" encoding="UTF-8"?><svg id="Layer_1" xmlns="http://www.w3.org/2000/svg" viewBox="0 0 789.56 789.58"><defs><style>.cls-1{fill:#f9f9f9;}</style></defs><path class="cls-1" d="M278.95,326.34c26.13,0,47.39-21.24,47.39-47.37s-21.27-47.39-47.39-47.39-47.37,21.27-47.37,47.39,21.24,47.37,47.37,47.37Z"/><path class="cls-1" d="M394.73,370.6c-89.97,0-163.17,73.2-163.17,163.17,0,13.59,10.63,24.23,24.23,24.23s24.23-10.63,24.23-24.23c0-63.28,51.46-114.74,114.74-114.74s114.74,51.46,114.74,114.74c0,13.35,10.88,24.23,24.23,24.23s24.23-10.63,24.23-24.23h-.05c0-89.97-73.2-163.17-163.17-163.17Z"/><path class="cls-1" d="M510.61,231.61c-26.13,0-47.39,21.27-47.39,47.39s21.27,47.39,47.39,47.39,47.39-21.27,47.39-47.39-21.27-47.39-47.39-47.39Z"/><path class="cls-1" d="M394.78,0C177.09,0,0,177.11,0,394.8s177.09,394.78,394.78,394.78,394.78-177.09,394.78-394.78S612.47,0,394.78,0ZM394.78,741.15c-191,0-346.38-155.38-346.38-346.35S203.78,48.43,394.78,48.43s346.38,155.38,346.38,346.38-155.38,346.35-346.38,346.35Z"/></svg>