<?xml version="1.0" encoding="UTF-8"?><svg id="Layer_1" xmlns="http://www.w3.org/2000/svg" viewBox="0 0 789.47 725.69"><defs><style>.cls-1{fill:#f9f9f9;}</style></defs><path class="cls-1" d="M277.5,76.81c-88.03,88.04-102.04,223.47-35.62,326.97l-73.73,73.73-83.34-83.35c-6.39-6.39-16.7-6.39-23.08,0l-56.95,56.94c-6.38,6.39-6.38,16.7,0,23.09l83.35,83.34L4.78,640.87c-6.38,6.39-6.38,16.7,0,23.09l56.95,56.94c6.38,6.39,16.69,6.39,23.08,0l83.34-83.34,83.34,83.34c6.39,6.39,16.7,6.39,23.09,0l56.94-56.94c6.39-6.39,6.39-16.7,0-23.09l-83.34-83.34,73.72-73.72c103.5,66.41,238.94,52.41,326.97-35.63,102.35-102.35,102.42-268.94,0-371.37-102.42-102.42-268.95-102.42-371.37,0ZM625.71,425.17c-79.95,79.95-204.61,90.27-296.34,24.4-6.54-4.69-15.47-3.93-21.09,1.69l-94.79,94.8c-6.39,6.39-6.39,16.7,0,23.09l83.34,83.34-33.86,33.86-83.34-83.35c-6.39-6.38-16.7-6.38-23.09,0l-83.34,83.35-33.85-33.86,83.34-83.34c6.39-6.39,6.39-16.7,0-23.09l-83.34-83.34,33.85-33.85,83.34,83.34c6.39,6.39,16.7,6.39,23.09,0l94.8-94.8c5.62-5.62,6.39-14.55,1.7-21.09-65.88-91.73-55.56-216.39,24.39-296.34,89.65-89.64,235.54-89.64,325.2,0,89.65,89.65,89.65,235.55,0,325.2Z"/><path class="cls-1" d="M335.76,135.07c-70.25,70.26-70.25,184.61,0,254.86,70.26,70.26,184.61,70.26,254.86,0,70.26-70.25,70.26-184.6,0-254.86-70.25-70.25-184.6-70.25-254.86,0ZM567.54,366.85c-57.57,57.56-151.14,57.56-208.69,0-57.57-57.57-57.57-151.14,0-208.69,57.56-57.56,151.13-57.56,208.69,0,57.56,57.56,57.56,151.13,0,208.69Z"/><path class="cls-1" d="M153.23,278.81c9.08,0,16.39-7.31,16.31-16.31,0-30.47,4.69-60.56,13.93-89.34,2.76-8.62-1.93-17.78-10.55-20.55-8.62-2.77-17.78,1.92-20.55,10.54-10.31,32.01-15.47,65.49-15.47,99.34,0,4.47,1.85,8.62,4.77,11.54,2.92,2.92,7.07,4.77,11.54,4.77Z"/><path class="cls-1" d="M773.16,246.03c-9.09,0-16.4,7.31-16.31,16.31,0,30.62-4.7,60.72-13.93,89.35-1.92,6.07-.24,12.39,4,16.62l-.07.07c1.77,1.77,3.93,3.16,6.54,3.93,8.62,2.77,17.78-1.92,20.55-10.54,10.31-31.86,15.47-65.34,15.55-99.42,0-9.08-7.32-16.39-16.31-16.31Z"/></svg>