<?xml version="1.0" encoding="UTF-8"?><svg id="Layer_1" xmlns="http://www.w3.org/2000/svg" viewBox="0 0 499.24 790.28"><defs><style>.cls-1{fill:#0d0d10;}</style></defs><path class="cls-1" d="M491.63,292.31l-56-26.36,21.34-14.26c3.73-2.48,5.92-6.61,5.9-11.05l-.17-63.65c-.02-7.29-5.98-13.21-13.26-13.21h-147.87l37.95-73.48h64.65c7.31,0,13.26-5.96,13.26-13.26V13.4c0-7.31-5.94-13.26-13.23-13.26l-120.13-.13c-5.06,0-9.59,2.79-11.82,7.25l-79.11,156.53H49.77c-7.31,0-13.26,5.94-13.26,13.23l-.13,63.65c-.02,4.86,2.61,9.34,6.9,11.67l25.84,14.09-61,25.66c-4.92,2.08-8.11,6.88-8.11,12.23v397.12c0,49,39.87,88.86,88.87,88.86h321.51c49,0,88.86-39.85,88.86-88.86v-397.12c0-5.11-2.98-9.82-7.61-12ZM292.21,26.51l98.7.12v37.14h-59.46c-4.98,0-9.5,2.75-11.8,7.19l-47.91,92.82h-48.89L292.21,26.51ZM62.92,232.79l.1-42.51h373.18l.13,43.31-31.64,21.07-302.77-.6-39.01-21.28ZM472.73,701.4c0,34.37-27.97,62.34-62.34,62.34H88.87c-34.37,0-62.34-27.97-62.34-62.34v-388.29l76.76-31.91,303.46.46,65.98,31.07v388.68Z"/><path class="cls-1" d="M307.48,405.08c-6.21-38.66-27.11-72.59-58.85-95.55-5.94-4.29-14.23-2.94-18.53,2.98l-48.87,67.54-107.41,148.59c-2.06,2.86-2.88,6.38-2.33,9.88s2.44,6.56,5.31,8.61c65.52,47.37,157.33,32.62,204.74-32.89,22.93-31.72,32.16-70.48,25.93-109.16ZM193.86,544.34c-10.29,2.77-20.76,4.13-31.22,4.13-18.65,0-37.16-4.36-54.06-12.92l-5.13-2.6,32.68-45.24,3.52,1.33c10.53,4,21.99,5.08,33.14,3.23l3.75-.63,22.9,51.21-5.58,1.48ZM192.67,451.06c-7.09,9.8-18.38,15.55-30.39,15.55-.46,0-.92,0-1.38-.02l-9.21-.35,42.56-58.9,3.21,8.63c4.38,11.77,2.6,24.88-4.79,35.08ZM278.77,459.29c-3.77,14.17-10.07,27.41-18.74,39.39-8.59,11.96-19.22,22.11-31.55,30.18l-4.83,3.17-23.03-51.48,2.81-2.38c4.04-3.44,7.65-7.32,10.75-11.57,3.38-4.71,6.11-9.82,8.11-15.13l1.35-3.56,56.64,5.81-1.5,5.58ZM225.98,421.5l-.65-3.65c-1.88-10.67-6.44-20.7-13.19-29.03l-2.36-2.92,33.7-46.64,4.09,4.08c20.9,20.84,33.35,48.62,35.07,78.22l.33,5.77-56.98-5.83Z"/><path class="cls-1" d="M266.97,731.16l.69-4.96c39.56-2.85,57.87-29.39,66.27-51.14,14.57-37.8,9.21-91.39-12.78-127.42-.62-1.02-16.03-25.82-30.34-39.54-9.54-9.15-18.74-12.42-24.17-12.42s-14.61,3.27-24.15,12.42c-14.73,14.13-30.14,39.29-30.3,39.54-22.01,36.03-27.41,89.61-12.82,127.42,8.4,21.74,26.7,48.29,66.13,51.14h.13l-.48,4.9h0l1.17-4.86.63,4.92ZM313.2,601.13c3.15,16.42,3.31,33.07.48,48.16-3.83,20.57-12.92,35.74-26.3,43.83l-7.48,4.52v-70.07l31.39-36.45,1.9,10.02ZM253.4,697.64l-7.48-4.52c-13.4-8.11-22.49-23.26-26.3-43.83-2.81-14.98-2.65-31.62.46-48.14l1.9-10.05,31.41,36.47v70.07ZM233.38,563.7l1.92-3.08c3.23-5.15,11.73-18.22,20.9-28.51,1.94-2.25,5-4.98,7.27-6.9l3.17-2.67,3.17,2.67c2.25,1.9,5.31,4.63,7.34,6.94,9.57,10.75,18.36,24.53,20.82,28.49l1.92,3.08-33.26,38.58-33.26-38.6Z"/></svg>