<?xml version="1.0" encoding="UTF-8"?><svg id="Layer_1" xmlns="http://www.w3.org/2000/svg" viewBox="0 0 790.28 699.05"><defs><style>.cls-1{fill:#0d0d10;}</style></defs><path class="cls-1" d="M768.31,240.97c0-1.22-1.22-2.44-2.44-3.66-87.86-97.63-200.14-180.61-307.52-225.76-20.75-8.54-41.49-15.86-63.46-8.54-17.08,6.1-30.51,19.53-37.83,39.05-9.76,24.41-2.44,47.59-19.53,57.36-17.08,10.98-41.49,10.98-59.8,28.07-18.31,17.08-19.53,42.71-28.07,63.46-8.54,23.19-26.85,41.49-43.93,58.58C1.94,460.63,10.48,449.65,4.38,464.29c-7.32,18.31-6.1,40.27,8.54,54.92,17.08,15.86,37.83,9.76,58.58,7.32,46.37-4.88,100.07-42.71,145.22-17.08,4.88,2.44,10.98,6.1,15.86,4.88,6.1-1.22,9.76-8.54,14.64-8.54,8.54-1.22,12.2,10.98,17.08,18.31,6.1,9.76,20.75,13.42,31.73,8.54,10.98-3.66,18.31-14.64,21.97-25.63,4.88-13.42,3.66-29.29,13.42-39.05,20.75-19.53,56.14,7.32,113.49-23.19,10.98-6.1,23.19-18.31,36.61-18.31,7.32,0,9.76,3.66,13.42,7.32-35.39,36.61-48.81,86.64-43.93,128.14,4.88,52.47,32.95,96.41,79.32,120.81,53.69,28.07,137.9,21.97,185.49-34.17,59.8-61.02,54.92-154.98,4.88-209.9-31.73-34.17-74.44-52.47-120.81-51.25,18.31-3.66,36.61-7.32,53.69-13.42,26.85-10.98,106.17-47.59,124.47-70.78,20.75-21.97,13.42-50.03-9.76-62.24ZM735.36,309.31c-10.98,4.88-21.97,9.76-32.95,14.64,0,0,0-1.22-1.22-1.22,2.44-14.64,4.88-30.51,12.2-45.15,6.1-10.98,18.31-21.97,31.73-23.19,12.2,0,21.97,7.32,24.41,15.86,7.32,18.31-17.08,31.73-34.17,39.05ZM375.36,49.38c6.1-14.64,15.86-24.41,26.85-28.07,14.64-4.88,32.95,1.22,50.03,8.54,100.07,42.71,203.8,118.37,288,207.46-17.08,2.44-31.73,14.64-41.49,31.73-6.1,10.98-9.76,23.19-12.2,35.39-40.27-46.37-82.98-92.75-131.8-131.8-61.02-48.81-123.25-79.32-185.49-91.53,1.22-12.2,1.22-21.97,6.1-31.73ZM180.11,370.32c-18.31,18.31-50.03,20.75-70.78,6.1,25.63-26.85,51.25-52.47,76.88-79.32,14.64,21.97,12.2,54.92-6.1,73.22ZM21.46,471.61c4.88-10.98,7.32-12.2,75.66-81.76,29.29,21.97,73.22,17.08,97.63-6.1,25.63-25.63,28.07-70.78,6.1-98.85,29.29-30.51,56.14-54.92,68.34-85.42,8.54-20.75,9.76-43.93,23.19-57.36,19.53-18.31,58.58-14.64,72-43.93,59.8,10.98,119.59,40.27,179.39,87.86,52.47,42.71,98.85,93.97,142.78,144-18.31,8.54-37.83,15.86-57.36,24.41-30.51,12.2-28.07,10.98-39.05,12.2-9.76,1.22-20.75,2.44-29.29,10.98-7.32,6.1-9.76,14.64-10.98,20.75-9.76,3.66-19.53,9.76-29.29,15.86-1.22-3.66-3.66-7.32-6.1-10.98-1.22-2.44-2.44-3.66-4.88-4.88-12.2-10.98-30.51-8.54-42.71-3.66h-1.22c-2.44,1.22-3.66,2.44-6.1,3.66-13.42-21.97-32.95-39.05-53.69-46.37-26.85-8.54-57.36-2.44-74.44,17.08-15.86,18.31-18.31,50.03-2.44,68.34-30.51,9.76-26.85,34.17-29.29,51.25-1.22,4.88-4.88,13.42-9.76,13.42-4.88-1.22-7.32-12.2-9.76-19.53-3.66-17.08-18.31-32.95-34.17-25.63h0c-8.54,3.66-10.98,10.98-14.64,14.64-3.66,2.44-10.98,0-21.97-3.66-35.39-13.42-69.56,8.54-124.47,21.97-10.98,2.44-21.97,4.88-32.95,7.32-8.54,1.22-23.19,3.66-29.29-4.88-4.88-3.66-4.88-12.2-1.22-20.75ZM349.73,436.22c0-1.22-1.22-2.44-2.44-2.44-13.42-10.98-13.42-35.39-2.44-48.81,12.2-13.42,34.17-18.31,54.92-12.2,17.08,6.1,32.95,19.53,43.93,39.05-20.75,13.42-31.73,13.42-93.97,24.41ZM708.51,450.87c36.61,39.05,45.15,102.51,19.53,151.32-43.93,87.86-163.52,98.85-224.54,29.29-36.61-41.49-42.71-104.95-15.86-154.98,43.93-80.54,153.76-97.63,220.88-25.63Z"/><path class="cls-1" d="M400.99,273.92c24.41,17.08,72,24.41,96.41,18.31,18.31-4.88,31.73-17.08,36.61-31.73,7.32-21.97-2.44-51.25-37.83-68.34-21.97-10.98-73.22-23.19-103.73-4.88-29.29,19.53-24.41,63.46,8.54,86.64ZM402.21,204.36c21.97-13.42,67.12-3.66,85.42,4.88,10.98,4.88,19.53,12.2,24.41,19.53,6.1,8.54,7.32,18.31,4.88,26.85-3.66,10.98-14.64,17.08-24.41,19.53-12.2,2.44-24.41,1.22-36.61-1.22-14.64-2.44-30.51-6.1-43.93-15.86-25.63-17.08-25.63-43.93-9.76-53.69Z"/><path class="cls-1" d="M287.5,323.95c8.54,4.88,18.31,7.32,28.07,7.32s19.53-2.44,28.07-7.32c4.88-2.44,6.1-8.54,3.66-12.2-2.44-4.88-8.54-6.1-12.2-3.66-10.98,6.1-26.85,7.32-37.83,0-12.2-6.1-19.53-19.53-19.53-31.73,0-4.88-3.66-8.54-8.54-8.54h0c-4.88,0-8.54,4.88-8.54,9.76-1.22,18.31,9.76,37.83,26.85,46.37Z"/><path class="cls-1" d="M325.33,194.6c4.88,0,8.54-3.66,8.54-7.32,1.22-8.54,13.42-14.64,20.75-10.98,4.88,2.44,9.76,0,12.2-3.66,2.44-4.88,0-9.76-3.66-12.2-18.31-9.76-43.93,3.66-47.59,24.41,0,4.88,3.66,9.76,9.76,9.76Z"/><path class="cls-1" d="M565.73,317.85s1.22,1.22,2.44,2.44c1.22,1.22,0,2.44,0,2.44-3.66,3.66-3.66,9.76,0,13.42,3.66,3.66,9.76,3.66,13.42,0,12.2-12.2,3.66-34.17-12.2-36.61-4.88,0-9.76,2.44-9.76,7.32-2.44,4.88,1.22,9.76,6.1,10.98Z"/><path class="cls-1" d="M76.38,460.63q18.31,3.66,19.53,3.66c10.98,0,12.2-15.86,1.22-18.31l-18.31-3.66c-4.88-1.22-9.76,2.44-10.98,7.32,0,4.88,3.66,9.76,8.54,10.98Z"/><path class="cls-1" d="M220.38,422.8c20.75,7.32,41.49-14.64,28.07-23.19-4.88-2.44-9.76-1.22-12.2,2.44-1.22,2.44-6.1,3.66-8.54,2.44-4.88-2.44-9.76,0-12.2,4.88-2.44,6.1,0,10.98,4.88,13.42Z"/><path class="cls-1" d="M606.01,642.46h0c20.75,0,40.27-6.1,57.36-17.08,4.88-2.44,4.88-9.76,1.22-13.42-29.29-29.29-128.14-129.36-129.36-130.58-3.66-2.44-8.54-2.44-12.2,1.22-2.44,2.44-4.88,7.32-6.1,9.76-35.39,65.9,8.54,148.88,89.08,150.1ZM606.01,624.15c-23.19,0-47.59-10.98-62.24-28.07-21.97-24.41-25.63-62.24-10.98-92.75l111.05,112.27c-12.2,6.1-25.63,8.54-37.83,8.54Z"/><path class="cls-1" d="M547.43,471.61l128.14,129.36c3.66,3.66,10.98,3.66,13.42-1.22,28.07-40.27,21.97-93.97-7.32-125.69-35.39-37.83-91.53-45.15-133.02-15.86-3.66,2.44-4.88,9.76-1.22,13.42ZM669.46,486.26c23.19,24.41,26.85,63.46,12.2,92.75h0l-112.27-112.27c34.17-17.08,73.22-9.76,100.07,19.53Z"/></svg>