<?xml version="1.0" encoding="UTF-8"?><svg id="Layer_1" xmlns="http://www.w3.org/2000/svg" viewBox="0 0 790.08 790.08"><defs><style>.cls-1{fill:#1d1f21;}</style></defs><path class="cls-1" d="M395.04,0C177.17,0,0,177.17,0,395.04s177.17,395.04,395.04,395.04,395.04-177.17,395.04-395.04S612.91,0,395.04,0ZM395.04,766.15c-204.71,0-371.1-166.4-371.1-371.1S190.33,23.94,395.04,23.94s371.1,166.4,371.1,371.1-166.4,371.1-371.1,371.1ZM275.32,311.23c19.86,0,35.93-16.03,35.93-35.93s-16.03-35.93-35.93-35.93-35.93,16.03-35.93,35.93,16.03,35.93,35.93,35.93ZM275.32,263.36c6.7,0,11.99,5.25,11.99,11.99s-5.25,11.99-11.99,11.99-11.99-5.25-11.99-11.99,5.25-11.99,11.99-11.99ZM514.77,239.42c-19.86,0-35.93,16.03-35.93,35.93s16.03,35.93,35.93,35.93,35.93-16.03,35.93-35.93-16.03-35.93-35.93-35.93ZM514.77,287.3c-6.7,0-11.99-5.25-11.99-11.99s5.25-11.99,11.99-11.99,11.99,5.25,11.99,11.99-5.25,11.99-11.99,11.99Z"/><path d="M239.36,395.07c0-6.7,5.25-11.99,11.99-11.99s11.99,5.25,11.99,11.99c0,72.56,59.12,131.68,131.68,131.68s131.68-59.12,131.68-131.68c0-6.7,5.25-11.99,11.99-11.99s11.99,5.25,11.99,11.99c0,85.72-69.9,155.62-155.62,155.62s-155.62-69.9-155.62-155.62h-.06Z"/></svg>