<?xml version="1.0" encoding="UTF-8"?><svg id="Layer_1" xmlns="http://www.w3.org/2000/svg" viewBox="0 0 685.38 790.28"><defs><style>.cls-1{fill:#1d1f21;}</style></defs><path class="cls-1" d="M684.95,87.4c-1.05-4.45-4.38-8.04-8.73-9.45l-51.97-16.89-16.89-51.97c-1.42-4.35-5.01-7.67-9.45-8.73-4.45-1.05-9.15.26-12.38,3.49l-53.88,53.88C475.54,20.31,410.46.36,342.49.36,153.63.32,0,153.98,0,342.81c0,103.8,45.68,199.53,125.5,264.7l-72.19,109.53c-6.98,10.47-9.45,23.05-6.95,35.37,2.5,12.42,9.75,23.09,20.35,30.07,7.97,5.2,16.93,7.71,25.85,7.71,15.38,0,30.49-7.44,39.62-21.14l73.93-112.2c42.98,18.77,88.78,28.42,136.41,28.42s93.33-9.62,136.5-28.42l73.9,112.17c8.73,13.34,23.45,21.27,39.42,21.27,9.29,0,18.31-2.73,25.98-7.84,10.54-6.95,17.75-17.59,20.29-29.97,2.54-12.35.07-24.96-6.88-35.5l-72.12-109.46c79.79-65.27,125.4-160.97,125.4-264.7,0-67.97-19.96-133.08-57.37-189.19l53.88-53.88c3.23-3.23,4.58-7.94,3.49-12.38l-.06.03ZM588.92,37.67l9.81,30.26-50.58,50.55-9.81-30.23,50.58-50.58ZM110.19,754.55c-6.52,9.75-19.27,12.35-29.05,5.96-4.68-3.1-7.87-7.8-8.99-13.3-1.09-5.43,0-10.93,3.1-15.61l71.23-108.08c11.46,8.04,23.35,15.38,35.6,21.87l-71.89,109.13v.03ZM612.76,747.24c-1.12,5.47-4.31,10.18-9.02,13.3-9.32,6.22-22.69,3.42-28.82-5.93l-71.96-109.23c12.25-6.55,24.17-13.86,35.6-21.87l71.16,108.01c3.1,4.68,4.18,10.24,3.06,15.71h-.03ZM534.02,594.31c-17.45,13.27-36.22,24.76-55.82,34.12-42.65,20.25-88.33,30.53-135.75,30.53s-93.2-10.28-135.65-30.53c-19.56-9.25-38.33-20.71-55.79-34.12-79.27-60.2-124.71-151.88-124.71-251.46C26.31,168.53,168.14,26.7,342.45,26.7c61.06,0,119.58,17.42,170.39,50.19-2.5,3.39-3.36,7.77-2.04,11.85l16.47,50.71-19.56,19.56c-43.86-39.48-101.69-63.72-165.22-63.72-136.53,0-247.58,111.08-247.58,247.58s111.08,247.58,247.58,247.58,247.58-111.08,247.58-247.58c0-63.53-24.24-121.36-63.72-165.22l19.59-19.59,50.65,16.47c1.35.43,2.7.66,4.08.66,2.8,0,5.43-1.12,7.71-2.8,32.8,50.85,50.25,109.4,50.25,170.49,0,99.56-45.41,191.24-124.61,251.5v-.06ZM397.19,342.84c0,30.17-24.53,54.7-54.67,54.7s-54.7-24.53-54.7-54.7,24.53-54.67,54.7-54.67c10.31,0,19.83,3.03,28.06,8l-37.38,37.38c-5.14,5.14-5.14,13.47,0,18.64,2.57,2.57,5.93,3.85,9.32,3.85s6.75-1.28,9.32-3.85l37.38-37.38c4.97,8.23,8,17.78,8,28.06l-.03-.03ZM389.62,277.08c-13.3-9.55-29.54-15.25-47.16-15.25-44.69,0-81.04,36.36-81.04,81.01s36.36,81.04,81.04,81.04,81.01-36.36,81.01-81.04c0-17.59-5.7-33.85-15.25-47.16l38.37-38.37c19.17,23.28,30.69,53.09,30.69,85.49,0,74.33-60.46,134.82-134.82,134.82s-134.82-60.46-134.82-134.82,60.46-134.82,134.82-134.82c32.44,0,62.21,11.53,85.49,30.69l-38.37,38.37.03.03ZM446.62,220.07c-28.12-23.88-64.45-38.4-104.13-38.4-88.85,0-161.17,72.28-161.17,161.17s72.28,161.17,161.17,161.17,161.17-72.28,161.17-161.17c0-39.72-14.49-76.01-38.4-104.13l42.48-42.48c34.71,39.09,55.98,90.37,55.98,146.61,0,121.98-99.25,221.23-221.23,221.23s-221.23-99.25-221.23-221.23,99.25-221.23,221.23-221.23c56.25,0,107.52,21.27,146.61,55.98l-42.48,42.48ZM597.06,146.93l-30.23-9.81,17.65-17.65.33-.33,32.6-32.6,30.23,9.81-50.55,50.58h-.03Z"/></svg>