<?xml version="1.0" encoding="UTF-8"?><svg id="Layer_1" xmlns="http://www.w3.org/2000/svg" viewBox="0 0 790.28 427.04"><defs><style>.cls-1{fill:#f9f9f9;}</style></defs><path class="cls-1" d="M698.37,59.19c-6.89,0-12.47,5.58-12.47,12.47s5.58,12.47,12.47,12.47,12.47-5.58,12.47-12.47-5.58-12.47-12.47-12.47Z"/><path class="cls-1" d="M715.62,20.26l-29.08-5.02c-23.05-3.98-46.52,2.38-64.41,17.44-17.89,15.06-28.15,37.11-28.15,60.5v31.04c0,5.99-1.6,11.6-4.39,16.45-6.73-10.53-18.67-17.48-32.25-17.48h-17c-22.63-40.23-59.92-74.04-105.8-95.72C384.9,4.01,328.19-4.67,270.57,2.38,130.73,19.48,26.76,124.85,30.79,243.83c-7.75,1.39-14.98,5.22-20.47,10.97-7.11,7.46-10.76,17.25-10.28,27.56.94,19.94,17.63,35.55,38,35.55h75.76v7.69c0,22.53-5.7,44.89-16.49,64.66-4.25,7.78-4.08,16.98.45,24.6,4.53,7.62,12.52,12.17,21.39,12.17h93.62c8.87,0,16.86-4.55,21.39-12.17,4.52-7.62,4.69-16.82.45-24.6-10.79-19.78-16.49-42.13-16.49-64.66v-7.69h139.94c24.46,0,47.96-8.99,66.17-25.3l10.04-8.99h35v47.25c0,19.09-4.83,38.04-13.97,54.8-4.78,8.76-4.59,19.11.5,27.69,5.09,8.58,14.09,13.7,24.07,13.7h83.11c9.98,0,18.97-5.12,24.07-13.7,5.09-8.58,5.28-18.93.5-27.69-9.14-16.76-13.97-35.71-13.97-54.8v-47.94c17.01-1.76,33.55-6.88,48.44-15.07,43.4-23.88,74.45-63.27,92.28-117.08,1.28-3.85,5.24-6.09,9.23-5.21l16.5,3.67c12.29,2.73,24.97-.22,34.79-8.1,9.82-7.88,15.45-19.62,15.45-32.21,0-43.9-31.4-81.18-74.65-88.65ZM511.45,123.49c-7.33.89-14.28,3.92-19.91,8.79l-35.71,30.9-24.96-43.23,28.62-49.31c20.9,14.86,38.57,32.82,51.97,52.85ZM175.97,243.23l-18.21-69.01,24.18-41.88h46.34l23.69,41.03-28.69,69.86h-47.3ZM249.75,119.94l23.16-40.11h45.21l23.71,41.06-22.6,39.15h-46.31l-23.16-40.11ZM274.06,184.84h45.38l34.42,56.09c-5.93,1.5-12.07,2.3-18.27,2.3h-85.51l23.98-58.39ZM376.73,230.8l-35.93-58.55,22.75-39.4h46.13l26.44,45.79c.21.36.44.68.68,1.01l-52.53,45.45c-2.39,2.07-4.91,3.97-7.52,5.7ZM361.77,29.72c21.66,4.14,42.55,10.88,62.19,20.16,4.97,2.35,9.81,4.85,14.54,7.5l-29.41,50.67h-44.95l-23.72-41.09,21.35-37.25ZM273.58,26.99c20.84-2.55,41.53-2.83,61.73-.97l-16.64,29.02h-46.09l-14.79-25.67c5.22-.93,10.48-1.73,15.78-2.38ZM232.45,35.03l18.82,32.67-23,39.84h-46.39l-23.3-40.36c22.41-14.08,47.33-24.94,73.87-32.15ZM112.79,104.1c7.88-8.12,16.37-15.68,25.39-22.67l22.23,38.51-23.16,40.11h-63.88c9.53-19.91,22.75-38.79,39.41-55.95ZM63.59,184.84h71.32l15.41,58.39H55.58c-.69-19.76,2.05-39.4,8.01-58.39ZM212.77,402.25l-93.68-.11c12.77-23.41,19.52-49.87,19.52-76.53v-7.69h54.72v7.69c0,26.66,6.75,53.13,19.45,76.65ZM358.06,293.12H38.05c-6.99,0-12.93-5.35-13.24-11.93-.16-3.48,1.06-6.78,3.45-9.28,2.39-2.51,5.62-3.89,9.08-3.89h298.25c23.83,0,46.87-8.59,64.89-24.17l107.28-92.81c2.28-1.97,5.19-3.06,8.21-3.06h41.39c6.99,0,12.93,5.35,13.24,11.93.16,3.48-1.06,6.78-3.45,9.28-2.39,2.51-5.62,3.89-9.08,3.89h-32.8c-3.05,0-6,1.13-8.27,3.16l-109.3,97.9c-13.66,12.24-31.29,18.98-49.63,18.98ZM565.72,400.69c-.42.71-1.24,1.56-2.75,1.56h-83.11c-1.5,0-2.32-.85-2.75-1.56-.42-.71-.78-1.84-.06-3.16,11.12-20.39,17-43.44,17-66.67v-47.25h54.72v47.25c0,23.23,5.88,46.28,17,66.67.72,1.32.37,2.45-.06,3.16ZM759.31,121.79c-3.92,3.15-8.99,4.32-13.9,3.23l-8.34-1.85c-.87-.48-1.8-.87-2.8-1.13-19.7-5.2-36.75-11.52-52.11-19.33-6.1-3.11-13.57-.67-16.67,5.43-3.1,6.1-.67,13.57,5.43,16.67,7.49,3.81,15.34,7.27,23.58,10.45-1.54,2.35-2.82,4.92-3.75,7.7-16.03,48.35-42.43,82.1-80.7,103.16-15.1,8.31-32.31,12.7-49.78,12.7h-98.33l68.05-60.95h28.06c10.16,0,20.01-4.22,27.02-11.57,3.95-4.14,6.83-9.01,8.53-14.28,15.19-10.48,25.18-27.99,25.18-47.81v-31.04c0-16.05,7.04-31.19,19.32-41.53,12.28-10.34,28.4-14.7,44.21-11.97l29.08,5.02c31.34,5.41,54.08,32.42,54.08,64.22,0,5.03-2.25,9.72-6.17,12.87Z"/></svg>