<?xml version="1.0" encoding="UTF-8"?><svg id="Layer_1" xmlns="http://www.w3.org/2000/svg" viewBox="0 0 790.21 742.36"><defs><style>.cls-1{fill:#f9f9f9;}</style></defs><path class="cls-1" d="M393,730.86c4.16,7.16,11.83,11.55,20.11,11.5h337.04c12.89-.02,23.33-10.49,23.31-23.38,0-3.96-1.02-7.85-2.94-11.31l-168.51-301.85c-6.3-11.25-20.53-15.25-31.78-8.95-3.75,2.1-6.85,5.2-8.95,8.95l-168.52,301.86c-4.08,7.22-3.98,16.06.25,23.18ZM581.64,424.6l162.36,290.82h-324.71l162.34-290.82Z"/><path class="cls-1" d="M581.64,641.44c-11.98,0-21.7,9.7-21.7,21.68,0,11.98,9.7,21.7,21.68,21.7,11.98,0,21.7-9.7,21.7-21.68v-.02c0-11.97-9.71-21.68-21.68-21.68Z"/><path class="cls-1" d="M581.63,609.38c7.44,0,13.47-6.03,13.47-13.47v-104.91c0-7.44-6.03-13.47-13.47-13.47s-13.47,6.03-13.47,13.47h0v104.91c0,7.44,6.03,13.47,13.47,13.47Z"/><path class="cls-1" d="M254.19,86.35c22.74,16.93,33.48,51.95,38.49,78.34h0c4.13,22.51,6.06,45.36,5.78,68.24-.26,7.43,5.55,13.67,12.99,13.93.03,0,.06,0,.09,0h.44c7.27,0,13.23-5.76,13.47-13.02.37-24.87-1.74-49.72-6.29-74.17h0c-8.58-45.24-25.02-77.17-48.91-94.97-1.37-.97-1.69-2.86-.72-4.23.05-.06.09-.13.14-.19,7.73-11.09,23.9-30.13,45.26-32.98,15-2.02,31.34,4.17,48.35,18.35.94.81,1.35,2.09,1.06,3.3-8.45,32.52-10.89,66.32-7.18,99.71h0v.13c2.65,25.13,12.06,49.06,27.23,69.27,4.58,5.86,13.05,6.89,18.91,2.31,5.86-4.58,6.89-13.05,2.31-18.91-9.38-12.44-15.9-26.79-19.11-42.03,2.86-.1,5.71-.21,8.5-.21,32.12-.09,63.91,6.45,93.38,19.23,5.24,2.29,11.37,1.02,15.26-3.17,15.63-16.76,42.2-51.13,44.56-92.97-.03-1.46.98-2.74,2.41-3.06,45-7.45,52.01,25.26,54.32,36.02.17,1.14-.3,2.29-1.22,2.99-22.45,16.41-60.16,49.45-60.89,86.43-.07,4.04,1.67,7.89,4.74,10.51,17.88,15.18,33.42,32.92,46.11,52.65,4.11,6.2,12.46,7.9,18.67,3.79,6.08-4.03,7.85-12.16,4-18.35-12.82-19.94-28.27-38.06-45.93-53.88,5.1-25.35,38.47-51.51,49.25-59.41,9.49-6.97,14.03-18.85,11.61-30.38-9.26-42.97-41.04-64.23-85.05-56.91-13.91,2.32-24.29,14.05-24.91,28.13-2.93,25.74-13.85,49.92-31.23,69.14-30.3-11.78-62.53-17.77-95.04-17.67-4.07,0-8.21.1-12.39.3-1.18-25.95,1.46-51.94,7.83-77.12,2.81-11.2-1.02-23.02-9.88-30.44C357.48,5.78,334.16-2.45,311.35.63c-29.97,4.02-51.18,26.3-63.75,44.22-9.55,13.3-6.6,31.81,6.6,41.49Z"/><path class="cls-1" d="M170.4,650.21c-9.48,6.98-14.02,18.85-11.61,30.38,8.08,37.37,33.17,58.37,68.63,58.37,5.59-.02,11.17-.5,16.67-1.44,13.82-2.48,24.09-14.19,24.74-28.22,2.88-25.72,13.78-49.88,31.15-69.07,30.31,11.78,62.56,17.78,95.07,17.68,7.44,0,13.47-6.03,13.47-13.47s-6.03-13.47-13.47-13.47c-32.12.09-63.91-6.46-93.38-19.23-5.25-2.28-11.36-1.01-15.26,3.17-15.64,16.76-42.2,51.12-44.47,92.9,0,1.47-.99,2.75-2.41,3.12-29.79,4.97-48.18-7.14-54.4-35.97-.2-1.16.28-2.34,1.23-3.03,22.45-16.41,60.16-49.48,60.88-86.42.07-4.04-1.67-7.91-4.76-10.52-17.48-14.81-32.71-32.09-45.2-51.3-4.06-6.24-12.4-8.01-18.64-3.95-6.24,4.06-8.01,12.4-3.95,18.64,12.61,19.38,27.72,37,44.94,52.42-3.61,17.43-21.47,39.11-49.22,59.42Z"/><path class="cls-1" d="M745.24,247.51c-13.35-9.38-31.74-6.41-41.47,6.69-13.33,17.96-40.41,31.27-78.35,38.46-22.51,4.13-45.36,6.07-68.24,5.79-7.44-.25-13.67,5.58-13.92,13.02-.25,7.44,5.58,13.67,13.02,13.92,24.87.36,49.71-1.74,74.16-6.29,45.32-8.59,77.22-25.03,94.94-48.86,1.03-1.42,3.01-1.74,4.43-.71.02.02.04.03.06.05,13.58,9.53,30.32,25.14,33.02,45.41,2,15.04-4.2,31.32-18.37,48.32-.84.97-2.16,1.37-3.4,1.04-32.52-8.36-66.28-10.8-99.67-7.18-7.37.99-12.55,7.77-11.56,15.15.99,7.37,7.77,12.55,15.15,11.56,30.04-3.15,60.39-.88,89.63,6.68,2.41.59,4.89.9,7.37.9,8.92,0,17.39-3.94,23.12-10.78,19.24-23.09,27.47-46.36,24.43-69.14-4.04-30.02-26.32-51.35-44.35-64.02Z"/><path class="cls-1" d="M44.74,542.51c5.13,3.64,11.26,5.61,17.55,5.62,9.53,0,18.48-4.55,24.1-12.25,16.85-22.72,51.85-33.45,78.26-38.46,22.51-4.12,45.36-6.06,68.24-5.79,7.44.25,13.67-5.58,13.92-13.02.25-7.44-5.58-13.67-13.02-13.92-24.87-.38-49.71,1.73-74.16,6.29-45.27,8.58-77.22,25.03-94.9,48.91-1.03,1.39-2.99,1.69-4.38.67-.04-.03-.07-.05-.11-.08-11.06-7.73-30.07-23.88-32.93-45.21-2.02-15.07,4.18-31.37,18.47-48.49.8-.89,2.03-1.26,3.19-.95,32.49,8.36,66.23,10.8,99.59,7.18h.15c25.14-2.65,49.09-12.06,69.31-27.24,5.79-4.68,6.69-13.16,2.01-18.94-4.57-5.66-12.81-6.66-18.61-2.27-12.43,9.39-26.79,15.91-42.03,19.11-.11-2.86-.21-5.71-.21-8.5-.1-32.12,6.45-63.91,19.23-93.38,2.29-5.24,1.02-11.37-3.17-15.26-16.77-15.63-51.14-42.2-92.89-44.55-1.48,0-2.78-.99-3.14-2.42-7.5-44.9,25.25-51.99,35.98-54.3,1.16-.22,2.34.26,3.03,1.22,16.41,22.45,49.46,60.16,86.43,60.88,4.06.14,7.95-1.62,10.52-4.76,15.22-17.96,33.04-33.54,52.87-46.23,6.28-4.02,8.11-12.37,4.09-18.65-4.02-6.28-12.37-8.11-18.65-4.09-20.06,12.84-38.29,28.34-54.17,46.09-25.34-5.1-51.51-38.46-59.4-49.24-6.97-9.5-18.86-14.05-30.39-11.62-42.97,9.27-64.25,41.07-56.88,85.2,2.47,13.82,14.18,24.09,28.2,24.75,25.75,2.93,49.92,13.86,69.14,31.24-11.79,30.29-17.8,62.53-17.72,95.04,0,4.08.09,8.22.3,12.39-25.92,1.21-51.88-1.43-77.03-7.84-11.2-2.78-23.01,1.05-30.45,9.88C5.79,432.65-2.43,455.96.62,478.81c3.98,29.97,26.22,51.2,44.12,63.7Z"/><path class="cls-1" d="M289.49,351.02c-16.3-.02-29.51-13.22-29.53-29.52,0-7.44-6.03-13.47-13.47-13.47s-13.47,6.03-13.47,13.47c0,31.19,25.28,56.47,56.47,56.47s56.47-25.28,56.47-56.47-25.28-56.47-56.47-56.47c-7.44,0-13.47,6.03-13.47,13.47s6.03,13.47,13.47,13.47c16.31.28,29.3,13.74,29.01,30.04-.28,15.91-13.11,28.74-29.01,29.01Z"/><path class="cls-1" d="M459.22,305.93c-16.31-.01-29.52-13.23-29.54-29.53,0-7.44-6.03-13.47-13.47-13.47s-13.47,6.03-13.47,13.47c0,31.19,25.27,56.47,56.46,56.48,31.19,0,56.47-25.27,56.48-56.46,0-31.19-25.27-56.47-56.46-56.48-7.44,0-13.47,6.03-13.47,13.47s6.03,13.47,13.47,13.47c16.31.28,29.3,13.74,29.01,30.04-.28,15.91-13.11,28.74-29.01,29.01Z"/><path class="cls-1" d="M430.78,476.05c31.19-.39,56.15-25.99,55.75-57.18-.39-30.63-25.12-55.37-55.75-55.75-7.44,0-13.47,6.03-13.47,13.47s6.03,13.47,13.47,13.47c16.31,0,29.53,13.23,29.52,29.54,0,16.31-13.23,29.53-29.54,29.52-16.31,0-29.52-13.23-29.52-29.53,0-7.44-6.03-13.47-13.47-13.47s-13.47,6.03-13.47,13.47c.06,31.17,25.31,56.41,56.48,56.46Z"/><path class="cls-1" d="M319.26,546.12c-16.29-.01-29.49-13.2-29.53-29.49,0-7.44-6.03-13.47-13.47-13.47s-13.47,6.03-13.47,13.47c0,31.19,25.27,56.47,56.46,56.48,31.19,0,56.47-25.27,56.48-56.46,0-31.19-25.27-56.47-56.46-56.48h0c-7.44,0-13.47,6.03-13.47,13.47s6.03,13.47,13.47,13.47c16.31-.02,29.54,13.19,29.56,29.49.02,16.31-13.19,29.54-29.49,29.56h-.06v-.04Z"/></svg>