<?xml version="1.0" encoding="UTF-8"?><svg id="Layer_1" xmlns="http://www.w3.org/2000/svg" viewBox="0 0 678.84 790.97"><defs><style>.cls-1{fill:#f9f9f9;}</style></defs><path class="cls-1" d="M676.51,477.37c-6.81-60.33-28.43-118.49-62.63-168.61l11.49-19.46c17.06-28.86,13.04-66.18-9.76-90.74-31.7-34.17-49.15-78.65-49.15-125.25V12.41c0-6.85-5.55-12.41-12.41-12.41s-12.41,5.55-12.41,12.41v60.89c0,52.89,19.8,103.37,55.77,142.14,15.38,16.58,18.1,41.77,6.59,61.24l-5.8,9.83-8.06-11.4c-3.95-5.6-11.69-6.92-17.29-2.96-5.6,3.95-6.92,11.69-2.96,17.29l16.67,23.56,5.27,7.55s19.63,30.86,27.56,47.3c-93.36,52.3-187.77,78.8-280.77,78.8h-.74c-92.34-.14-186.06-26.43-278.76-78.12,7.99-16.69,33.16-55.54,33.16-55.54l16.67-23.56c3.95-5.6,2.64-13.34-2.96-17.29-5.6-3.95-13.34-2.64-17.29,2.96l-8.06,11.4-5.8-9.83c-11.51-19.48-8.79-44.67,6.59-61.24,35.97-38.77,55.77-89.25,55.77-142.14V12.41c0-6.85-5.55-12.41-12.41-12.41s-12.41,5.55-12.41,12.41v60.89c0,46.6-17.46,91.08-49.15,125.25-22.8,24.57-26.81,61.9-9.76,90.74l11.49,19.46C30.77,358.88,9.15,417.04,2.34,477.37c-7.04,62.41,1.89,126.07,25.82,184.14,11.6,28.15,16.44,59.06,13.97,89.41l-2.03,25.08c-.56,6.82,4.53,12.81,11.37,13.37.34.03.68.05,1.02.05,6.39,0,11.83-4.92,12.35-11.4l2.03-25.08c2.78-34.23-2.68-69.11-15.77-100.87-21.46-52.06-29.95-108.95-24.77-164.98,109.77,40.51,208.33,85.58,300.7,137.49,0,.16-.03.31-.03.47v153.54c0,6.85,5.55,12.41,12.41,12.41s12.41-5.55,12.41-12.41v-153.54c0-.16-.02-.31-.03-.47,92.39-51.91,190.95-96.98,300.7-137.49,5.18,56.03-3.32,112.92-24.77,164.98-13.09,31.76-18.53,66.64-15.77,100.87l2.03,25.08c.53,6.48,5.96,11.4,12.35,11.4.34,0,.68-.02,1.02-.05,6.82-.56,11.91-6.54,11.37-13.37l-2.03-25.08c-2.45-30.35,2.37-61.26,13.97-89.41,23.96-58.07,32.88-121.75,25.85-184.14ZM337.86,471.47h.78c96.59,0,194.36-27.19,290.76-80.8,9.09,22.91,15.76,46.78,19.84,71.14-113.25,41.5-214.72,87.77-309.82,141.22-95.09-53.46-196.58-99.71-309.82-141.22,4.03-24.12,10.61-47.74,19.56-70.44,95.75,53.01,192.81,79.96,288.71,80.1Z"/><path class="cls-1" d="M339.43,348.95c6.85,0,12.41-5.55,12.41-12.41v-18.61c0-6.85-5.55-12.41-12.41-12.41s-12.41,5.55-12.41,12.41v18.61c0,6.85,5.55,12.41,12.41,12.41Z"/></svg>