<?xml version="1.0" encoding="UTF-8"?><svg id="Layer_1" xmlns="http://www.w3.org/2000/svg" viewBox="0 0 474.4 790.28"><defs><style>.cls-1{fill:#1d1f21;}</style></defs><path class="cls-1" d="M402.09,234.1c-20.88-66.51,24.66-141.98,39.49-163.48.39-.65.66-1.36.79-2.11,11.5-17.66,18.21-38.02,19.48-59.06.36-4.85-3.27-9.07-8.12-9.43-4.85-.36-9.07,3.27-9.43,8.12-4.3,57.48-43.88,92.49-101.62,88.98-50.02-2.98-99.07-34.13-95.91-87.75.3-4.82-3.35-8.97-8.16-9.3h-2.11c-4.84.28-8.53,4.43-8.25,9.27v.03c3.25,53.7-45.8,84.85-95.82,87.75-57.39,3.42-97.4-31.5-101.62-88.98C30.45,3.31,26.23-.31,21.4.06c-.02,0-.04,0-.06,0-4.82.37-8.43,4.57-8.07,9.39,1.24,20.9,7.86,41.12,19.22,58.71.2.86.52,1.69.97,2.46,14.48,21.5,60.02,96.96,39.14,163.48-8.11,22.49-18.99,43.89-32.38,63.71-28.17,46.16-57.39,93.89-27.9,189.72h0c59.85,194.02,96.53,295.37,96.53,296.33,1.26,3.47,4.55,5.79,8.25,5.79,1.02,0,2.03-.18,2.98-.53,4.55-1.65,6.91-6.68,5.27-11.23,0-.97-35.1-97.32-92.14-282.21,95.47,14.83,193.49,44.4,193.75,69.24.44,49.14,0,214.29,0,215.95,0,4.85,3.93,8.78,8.78,8.78h1.05c4.85,0,8.78-3.93,8.78-8.78,0-1.67-.44-166.73,0-215.95,0-25.01,99.42-54.76,195.51-69.5-57.3,185.68-91.87,282.12-92.23,283.08-1.67,4.48.55,9.48,5,11.23.93.34,1.91.52,2.9.53,3.89.23,7.46-2.13,8.78-5.79,0-.97,36.59-102.32,96.53-296.33,29.57-96.09.44-143.82-27.82-190.07-13.32-19.91-24.1-41.4-32.12-63.97ZM43.1,327.47c47.65,33.87,118.11,53.18,193.05,53.18s146.54-19.66,194.37-53.97c6.37,10.88,11.83,22.27,16.32,34.05-1.02.26-2,.67-2.9,1.23-50.28,32.99-126.01,51.86-207.88,51.86s-155.32-18.34-205.51-50.28c-1.28-.76-2.73-1.18-4.21-1.23,4.58-12.07,10.19-23.72,16.76-34.84ZM85.4,248.49c.34-.67.6-1.38.79-2.11.88-2.54,1.93-4.91,2.72-7.46,15.27-48.44-.53-99.95-17.55-136.36,16.52,8.06,34.7,12.15,53.09,11.93h8.78c48.96-2.98,87.75-27.99,104.07-63.09,16.32,35.1,55.11,60.11,104.07,63.09h8.78c18.23.16,36.25-3.9,52.65-11.85-17.02,36.33-32.73,87.75-17.55,136.28,8.39,23.93,19.74,46.72,33.78,67.83l2.63,4.39c-44.75,32.73-112.32,51.51-185.33,51.51s-138.56-18.16-183.31-50.02c-.36-.21-.74-.39-1.14-.53l3.25-5.35c11.92-18.26,22.06-37.63,30.27-57.83v-.44ZM236.33,545.61c-34.57-40.01-167.78-62.39-208.67-68.36-12.02-41.68-12.2-73.01-5.97-99.16,52.65,33.61,131.1,52.65,214.64,52.65s162.95-18.87,216.04-53.18c6.49,26.33,6.49,57.83-5.7,99.86-38.79,5.62-175.33,28.08-210.34,68.62v-.44Z"/></svg>