<?xml version="1.0" encoding="UTF-8"?><svg id="Layer_1" xmlns="http://www.w3.org/2000/svg" viewBox="0 0 733.11 790.28"><defs><style>.cls-1{fill:#f9f9f9;}</style></defs><path class="cls-1" d="M726.59,183.59c-3.92-15.07-10.01-30.61-18.1-46.16L640.73,7.07c-3.37-6.4-11.37-8.93-17.74-5.59-6.42,3.34-8.93,11.29-5.61,17.74l67.79,130.33c7.26,13.99,12.63,27.65,15.95,40.64,22.76,87.73-30.49,129.42-32.69,131.07l-1.27,1.07c-3.87,3.61-97.26,88.35-300.59,88.4-197.86-.02-291.61-80.3-300.59-88.35-1.46-3.25-4.2-5.78-7.62-7l-.1-.05c-14.83-15.23-44.25-55.85-26.29-125.15,3.41-13.16,8.79-26.84,15.95-40.64L115.72,19.23c3.34-6.42.86-14.4-5.59-17.74-3.13-1.62-6.69-1.91-10.03-.88-3.37,1.07-6.11,3.37-7.71,6.5L24.6,137.43c-8.05,15.45-14.14,30.97-18.08,46.16-20.85,80.5,13.3,129.47,31.93,149.05-14.95,45.23-22.61,91-22.8,136.13-.48,111.06,29.08,217.08,87.92,315.18,3.65,5.99,12.49,7.86,17.98,4.44,3.01-1.79,5.16-4.66,6.02-8.07s.33-6.95-1.46-9.98c-56.31-93.84-84.63-195.28-84.15-301.5.05-11.75.62-23.64,1.77-35.51,43.75,27.65,80.97,45.39,114.12,61.18,63.8,30.49,114.24,54.56,175.34,129.78,5.11,6.3,12.03,10.96,19.84,13.42v139.41c0,7.26,5.9,13.16,13.16,13.16s13.13-5.9,13.13-13.16v-139.21c8.12-2.39,15.28-7.14,20.51-13.66,61.15-75.24,111.54-99.29,175.56-129.85,33-15.71,70.11-33.41,113.47-60.77.98,11.27,1.48,22.88,1.53,35.22.45,106.24-27.87,207.68-84.17,301.54-3.68,6.21-1.62,14.28,4.49,17.96,2.05,1.27,4.42,1.93,6.83,1.93,4.61,0,8.93-2.48,11.27-6.42,58.79-98,88.35-204.02,87.87-315.13-.21-48.55-7.14-90.36-22.61-135.49,18.89-19.68,53.46-68.75,32.52-149.65ZM566.77,476.15l-2.82-5.42c-64.16,30.61-119.59,57.05-184.51,136.95-3.03,3.75-7.24,5.64-12.58,5.64h-.53c-5.33,0-9.72-1.96-12.73-5.64-64.62-79.49-119.8-106.05-183.56-136.47l-.98-.48c-35.05-16.72-74.67-35.58-121.54-66.19,2.98-17.67,7.16-35.41,12.49-52.89,33.62,25.91,130.04,85.32,306.77,85.42,175.58-.1,272.2-59.34,305.82-85.06,5.64,17.77,9.81,35.13,12.68,52.7-46.66,30.37-86.18,49.24-121.14,65.93l2.63,5.52Z"/><path class="cls-1" d="M366.19,314.8c10.05,0,18.24-8.19,18.24-18.24s-8.19-18.24-18.24-18.24-18.24,8.19-18.24,18.24,8.19,18.24,18.24,18.24ZM366.19,294.63c1.05,0,1.93.84,1.93,1.93s-.88,1.93-1.93,1.93-1.93-.88-1.93-1.93.87-1.93,1.93-1.93Z"/></svg>