<?xml version="1.0" encoding="UTF-8"?><svg id="Layer_1" xmlns="http://www.w3.org/2000/svg" viewBox="0 0 255.61 58.91"><defs><style>.cls-1{fill:#f9f9f9;}</style></defs><path class="cls-1" d="M18.62,1.42c2.71,0,5.04.76,6.98,2.29,1.94,1.53,2.92,3.32,2.92,5.38,0,.87-.32,1.66-.95,2.36-.63.7-1.54,1.05-2.72,1.05-1.31,0-2.34-.28-3.08-.85-.74-.57-1.22-1.25-1.44-2.06-.22-.81-.4-1.62-.56-2.42-.15-.81-.47-1.51-.95-2.1-.48-.59-1.18-.88-2.1-.88-1.09,0-1.9.47-2.42,1.41-.53.94-.75,2.15-.69,3.64.07,1.49.24,2.97.53,4.46.28,1.49.66,2.93,1.15,4.33h8c.35,0,.65.13.92.39.26.26.39.57.39.92v1.24c0,.35-.13.65-.39.89-.26.24-.57.36-.92.36h-7.74v21.3c0,.79.27,1.49.82,2.1.55.61,1.09,1.14,1.64,1.57.55.44.82.87.82,1.31v.26c0,.74-.42,1.11-1.25,1.11H4.79c-.92,0-1.38-.37-1.38-1.11v-.26c0-.44.44-1.12,1.31-2.03.87-.92,1.31-1.9,1.31-2.95v-21.3H1.38c-.92,0-1.38-.41-1.38-1.25v-1.24c0-.35.13-.66.39-.92.26-.26.59-.39.98-.39h4.65v-4.13c0-3.67,1.07-6.66,3.21-8.98,2.14-2.32,5.27-3.47,9.37-3.47Z"/><path class="cls-1" d="M41.1,50.13c-5.2,0-9.49-1.61-12.88-4.82-3.39-3.21-5.08-7.13-5.08-11.77s1.66-8.54,4.98-11.6c3.32-3.06,7.32-4.59,12-4.59,5.03,0,9.22,1.58,12.59,4.75,3.36,3.17,5.05,7.09,5.05,11.77s-1.59,8.56-4.75,11.64c-3.17,3.08-7.13,4.62-11.9,4.62ZM42.28,47.24c1.79,0,3.18-.83,4.16-2.49.98-1.66,1.48-4,1.48-7.01,0-2.49-.36-5.06-1.08-7.7-.72-2.64-1.8-4.94-3.24-6.88-1.44-1.94-3.04-2.92-4.79-2.92-4.02,0-6.03,3.19-6.03,9.57,0,2.36.36,4.85,1.08,7.47.72,2.62,1.83,4.94,3.34,6.95,1.51,2.01,3.2,3.01,5.08,3.01Z"/><path class="cls-1" d="M80.24,17.35c1.88,0,3.35.56,4.42,1.67,1.07,1.11,1.61,2.55,1.61,4.29,0,3.45-1.4,5.18-4.19,5.18-1.14,0-2.02-.3-2.66-.88-.63-.59-1.02-1.23-1.15-1.93-.13-.7-.39-1.34-.79-1.93-.39-.59-.98-.88-1.77-.88-1.18,0-2.05.7-2.62,2.1-.57,1.4-.85,3.1-.85,5.11v13.11c0,.79.27,1.48.82,2.06.55.59,1.09,1.1,1.64,1.54.55.44.82.87.82,1.31v.26c0,.74-.48,1.11-1.44,1.11h-12.13c-1,0-1.51-.37-1.51-1.11v-.26c0-.44.43-1.12,1.28-2.03.85-.92,1.28-1.88,1.28-2.89v-15.34c0-1.05-.5-1.99-1.51-2.82-1.01-.83-1.51-1.46-1.51-1.9v-.26c0-.61.46-1.14,1.38-1.57l7.87-3.67c1.4-.65,2.1-.22,2.1,1.31v4.92c1.49-4.33,4.46-6.49,8.92-6.49Z"/><path class="cls-1" d="M126.06,18c1.66,0,2.76.16,3.31.49.55.33.71.82.49,1.48-.13.65-.42,1.13-.85,1.41-.44.28-1.18.51-2.23.69-1.05.17-1.68.31-1.9.39,2.45,2.53,3.67,5.33,3.67,8.39,0,2.54-.64,4.8-1.93,6.78-1.29,1.99-3.09,3.53-5.41,4.62,5.25,1.18,7.87,3.67,7.87,7.47,0,2.75-1.56,4.97-4.69,6.65-3.12,1.68-7.05,2.52-11.77,2.52s-8.45-.85-11.18-2.56c-2.73-1.7-4.1-3.87-4.1-6.49,0-1,.33-1.87.98-2.59.65-.72,1.62-1.08,2.89-1.08,1.18,0,2.18.52,3.01,1.54.83,1.03,1.48,2.16,1.93,3.41.46,1.25,1.26,2.38,2.39,3.41,1.14,1.03,2.56,1.56,4.26,1.61,2.01,0,3.62-.57,4.82-1.71,1.2-1.14,1.8-2.62,1.8-4.46,0-3.45-1.36-5.46-4.07-6.03-1.14.09-1.99.13-2.56.13-4.41,0-8.07-1.23-10.98-3.7-2.91-2.47-4.36-5.56-4.36-9.28,0-4.11,1.44-7.43,4.33-9.96,2.89-2.53,6.62-3.8,11.21-3.8,1.18,0,3.04.11,5.57.33,2.53.22,5.03.33,7.47.33ZM106.72,26.79c0,3.58.75,6.87,2.26,9.87,1.51,2.99,3.27,4.49,5.28,4.49,1.53,0,2.74-.6,3.64-1.8.9-1.2,1.34-2.79,1.34-4.75,0-2.14-.31-4.3-.92-6.49-.61-2.18-1.53-4.04-2.75-5.57-1.22-1.53-2.56-2.29-4-2.29s-2.67.59-3.54,1.77c-.87,1.18-1.31,2.78-1.31,4.78Z"/><path class="cls-1" d="M150.85,50.13c-5.2,0-9.49-1.61-12.88-4.82-3.39-3.21-5.08-7.13-5.08-11.77s1.66-8.54,4.98-11.6c3.32-3.06,7.32-4.59,12-4.59,5.03,0,9.22,1.58,12.59,4.75,3.36,3.17,5.05,7.09,5.05,11.77s-1.59,8.56-4.75,11.64c-3.17,3.08-7.13,4.62-11.9,4.62ZM152.03,47.24c1.79,0,3.18-.83,4.16-2.49.98-1.66,1.48-4,1.48-7.01,0-2.49-.36-5.06-1.08-7.7-.72-2.64-1.8-4.94-3.24-6.88-1.44-1.94-3.04-2.92-4.79-2.92-4.02,0-6.03,3.19-6.03,9.57,0,2.36.36,4.85,1.08,7.47.72,2.62,1.83,4.94,3.34,6.95,1.51,2.01,3.2,3.01,5.08,3.01Z"/><path class="cls-1" d="M188.62,50.13c-5.2,0-9.49-1.61-12.88-4.82-3.39-3.21-5.08-7.13-5.08-11.77s1.66-8.54,4.98-11.6c3.32-3.06,7.32-4.59,12-4.59,5.03,0,9.22,1.58,12.59,4.75,3.36,3.17,5.05,7.09,5.05,11.77s-1.59,8.56-4.75,11.64c-3.17,3.08-7.13,4.62-11.9,4.62ZM189.8,47.24c1.79,0,3.18-.83,4.16-2.49.98-1.66,1.48-4,1.48-7.01,0-2.49-.36-5.06-1.08-7.7-.72-2.64-1.8-4.94-3.24-6.88-1.44-1.94-3.04-2.92-4.79-2.92-4.02,0-6.03,3.19-6.03,9.57,0,2.36.36,4.85,1.08,7.47.72,2.62,1.83,4.94,3.34,6.95,1.51,2.01,3.2,3.01,5.08,3.01Z"/><path class="cls-1" d="M240.87,43.18c0,1.01.44,1.98,1.31,2.92.87.94,1.31,1.63,1.31,2.06v.2c0,.74-.44,1.11-1.31,1.11h-8.13c-1.01,0-1.51-.48-1.51-1.44l-.13-1.44c-2.01,2.36-4.85,3.54-8.52,3.54-4.24,0-7.87-1.47-10.88-4.42-3.01-2.95-4.52-6.96-4.52-12.03,0-4.76,1.51-8.68,4.52-11.73,3.01-3.06,6.66-4.59,10.95-4.59,3.06,0,5.61.85,7.67,2.56v-10.49c0-.87-.27-1.6-.82-2.16-.55-.57-1.09-1.05-1.64-1.44-.55-.39-.82-.81-.82-1.24v-.2c0-.74.46-1.25,1.38-1.51l8.59-2.62c1.7-.57,2.56-.13,2.56,1.31v41.63ZM226.06,47.31c1.49,0,2.79-.62,3.9-1.87,1.11-1.25,1.67-2.96,1.67-5.15v-11.54c0-2.14-.72-4.11-2.16-5.9-1.44-1.79-3.1-2.69-4.98-2.69-2.01,0-3.6.84-4.78,2.52-1.18,1.68-1.79,4.06-1.84,7.11-.09,2.49.17,5.05.75,7.67.59,2.62,1.55,4.91,2.89,6.85,1.33,1.94,2.85,2.94,4.55,2.98Z"/><path class="cls-1" d="M251.63,41.65c2.22,0,3.99,1.72,3.99,3.91s-1.77,3.94-4.01,3.94-4.03-1.74-4.03-3.94,1.79-3.91,4.03-3.91h.02ZM251.58,42.44c-1.69,0-3.01,1.41-3.01,3.13s1.31,3.13,3.05,3.13c1.7.02,2.98-1.38,2.98-3.1s-1.29-3.15-3.01-3.15h-.02ZM250.98,47.6h-.91v-3.91c.36-.05.86-.12,1.5-.12.74,0,1.07.12,1.34.31.24.17.41.45.41.83,0,.48-.36.79-.81.93v.05c.38.12.57.43.69.95.12.6.22.81.29.95h-.95c-.12-.14-.19-.48-.31-.95-.07-.41-.31-.6-.81-.6h-.43v1.55ZM251.01,45.4h.43c.5,0,.91-.17.91-.57,0-.36-.26-.6-.84-.6-.24,0-.41.02-.5.05v1.12Z"/></svg>