<?xml version="1.0" encoding="UTF-8"?><svg id="Layer_1" xmlns="http://www.w3.org/2000/svg" viewBox="0 0 354.86 125.34"><defs><style>.cls-1{fill:#0d0d10;}</style></defs><path class="cls-1" d="M24.06,66.49c-.8-.9-1.21-1.93-1.21-3.09v-31.33h11.38c.51,0,.96-.18,1.35-.53.38-.35.58-.79.58-1.3v-1.83c0-.51-.19-.97-.58-1.35-.38-.38-.84-.58-1.35-.58h-11.76c-.71-2.06-1.27-4.18-1.69-6.36-.42-2.18-.68-4.37-.77-6.55-.1-2.18.24-3.97,1.01-5.35.77-1.38,1.96-2.07,3.57-2.07,1.35,0,2.38.43,3.09,1.3.71.87,1.17,1.9,1.4,3.09.23,1.19.5,2.38.82,3.57.32,1.19,1.03,2.2,2.12,3.04,1.09.84,2.6,1.25,4.53,1.25,1.74,0,3.07-.51,4-1.54.93-1.03,1.4-2.18,1.4-3.47,0-3.02-1.43-5.65-4.29-7.9-2.86-2.25-6.28-3.37-10.27-3.37-6.04,0-10.64,1.7-13.79,5.11-3.15,3.41-4.73,7.81-4.73,13.21v6.07H2.03c-.58,0-1.06.19-1.45.58-.38.38-.58.84-.58,1.35v1.83c0,1.22.68,1.83,2.03,1.83h6.84v31.33c0,1.54-.64,2.99-1.93,4.34-1.29,1.35-1.93,2.35-1.93,2.99v.38c0,1.09.68,1.64,2.02,1.64h18.8c1.22,0,1.83-.55,1.83-1.64v-.38c0-.64-.4-1.29-1.2-1.93-.8-.64-1.61-1.41-2.41-2.31Z"/><path class="cls-1" d="M59,25.52c-6.88,0-12.76,2.25-17.64,6.75-4.89,4.5-7.33,10.18-7.33,17.06s2.49,12.58,7.47,17.3c4.98,4.72,11.3,7.08,18.94,7.08,7.01,0,12.84-2.26,17.5-6.79,4.66-4.53,6.99-10.24,6.99-17.11s-2.48-12.64-7.42-17.3c-4.95-4.66-11.12-6.99-18.51-6.99ZM68.3,65.81c-1.45,2.44-3.49,3.67-6.12,3.67s-5.25-1.48-7.47-4.43c-2.22-2.96-3.85-6.36-4.91-10.22-1.06-3.85-1.59-7.52-1.59-10.99,0-9.39,2.95-14.08,8.87-14.08,2.57,0,4.92,1.43,7.04,4.29,2.12,2.86,3.71,6.24,4.77,10.13,1.06,3.89,1.59,7.66,1.59,11.32,0,4.43-.72,7.88-2.17,10.31Z"/><path class="cls-1" d="M117.45,25.52c-6.55,0-10.93,3.18-13.11,9.54v-7.23c0-2.25-1.03-2.89-3.08-1.93l-11.57,5.4c-1.35.64-2.03,1.41-2.03,2.31v.38c0,.64.74,1.57,2.22,2.79,1.48,1.22,2.22,2.6,2.22,4.15v22.56c0,1.48-.63,2.89-1.88,4.24-1.25,1.35-1.88,2.35-1.88,2.99v.38c0,1.09.74,1.64,2.22,1.64h17.83c1.41,0,2.12-.55,2.12-1.64v-.38c0-.64-.4-1.29-1.2-1.93-.81-.64-1.61-1.4-2.41-2.27-.8-.87-1.2-1.88-1.2-3.04v-19.28c0-2.95.42-5.46,1.25-7.52.83-2.05,2.12-3.08,3.85-3.08,1.16,0,2.02.43,2.6,1.3.58.86.97,1.81,1.16,2.84.19,1.03.75,1.98,1.69,2.85.93.87,2.23,1.3,3.91,1.3,4.11,0,6.17-2.54,6.17-7.62,0-2.57-.79-4.68-2.36-6.31-1.57-1.64-3.74-2.46-6.51-2.46Z"/><path class="cls-1" d="M217.83,25.52c-6.88,0-12.76,2.25-17.64,6.75-4.89,4.5-7.33,10.18-7.33,17.06s2.49,12.58,7.47,17.3c4.98,4.72,11.3,7.08,18.94,7.08,7.01,0,12.84-2.26,17.5-6.79,4.66-4.53,6.99-10.24,6.99-17.11s-2.48-12.64-7.42-17.3c-4.95-4.66-11.12-6.99-18.51-6.99ZM227.14,65.81c-1.44,2.44-3.49,3.67-6.12,3.67s-5.25-1.48-7.47-4.43c-2.22-2.96-3.86-6.36-4.92-10.22-1.06-3.85-1.59-7.52-1.59-10.99,0-9.39,2.95-14.08,8.87-14.08,2.57,0,4.92,1.43,7.04,4.29,2.12,2.86,3.71,6.24,4.77,10.13,1.06,3.89,1.59,7.66,1.59,11.32,0,4.43-.72,7.88-2.17,10.31Z"/><path class="cls-1" d="M273.09,25.52c-6.88,0-12.76,2.25-17.64,6.75-4.89,4.5-7.33,10.18-7.33,17.06s2.49,12.58,7.47,17.3c4.98,4.72,11.3,7.08,18.94,7.08,7.01,0,12.84-2.26,17.5-6.79,4.66-4.53,6.99-10.24,6.99-17.11s-2.48-12.64-7.42-17.3c-4.95-4.66-11.12-6.99-18.51-6.99ZM282.4,65.81c-1.44,2.44-3.48,3.67-6.12,3.67s-5.25-1.48-7.47-4.43c-2.22-2.96-3.86-6.36-4.92-10.22-1.06-3.85-1.59-7.52-1.59-10.99,0-9.39,2.95-14.08,8.87-14.08,2.57,0,4.92,1.43,7.04,4.29,2.12,2.86,3.71,6.24,4.77,10.13,1.06,3.89,1.59,7.66,1.59,11.32,0,4.43-.72,7.88-2.17,10.31Z"/><path class="cls-1" d="M351.01,63.5V2.28c0-2.12-1.25-2.76-3.76-1.93l-12.63,3.86c-1.35.38-2.03,1.12-2.03,2.22v.29c0,.64.4,1.25,1.21,1.83.8.58,1.61,1.29,2.41,2.12.8.83,1.2,1.9,1.2,3.18v15.42c-3.02-2.5-6.78-3.76-11.28-3.76-6.3,0-11.67,2.25-16.1,6.75-4.43,4.5-6.65,10.25-6.65,17.26,0,7.46,2.22,13.35,6.65,17.69,4.43,4.34,9.77,6.51,16,6.51,5.4,0,9.58-1.74,12.53-5.21l.19,2.12c0,1.41.74,2.12,2.22,2.12h11.95c1.28,0,1.93-.55,1.93-1.64v-.29c0-.64-.64-1.65-1.93-3.04-1.29-1.38-1.93-2.81-1.93-4.29ZM337.41,59.26c0,3.21-.82,5.74-2.46,7.57-1.64,1.83-3.55,2.75-5.74,2.75-2.51-.07-4.74-1.53-6.7-4.39-1.96-2.86-3.38-6.22-4.24-10.07-.87-3.86-1.24-7.62-1.11-11.28.06-4.5.97-7.99,2.7-10.46,1.74-2.47,4.08-3.71,7.04-3.71,2.76,0,5.21,1.32,7.33,3.96,2.12,2.63,3.18,5.52,3.18,8.67v16.97Z"/><path class="cls-1" d="M187.34,25.52h-21.74,0c-6.73.01-12.21,1.87-16.44,5.59-4.24,3.73-6.36,8.61-6.36,14.65,0,5.47,2.14,10.01,6.41,13.64,4.27,3.63,9.65,5.45,16.15,5.45.83,0,2.09-.07,3.76-.2,3.98.84,5.98,3.8,5.98,8.87,0,2.7-.88,4.88-2.65,6.55-1.77,1.67-4.13,2.51-7.09,2.51-2.51-.07-4.6-.85-6.27-2.36-1.67-1.51-2.85-3.18-3.52-5.01-.67-1.83-1.62-3.5-2.84-5.01-1.22-1.51-2.7-2.27-4.43-2.27-1.87,0-3.28.53-4.24,1.59-.96,1.06-1.44,2.33-1.44,3.81,0,3.86,2,7.04,6.02,9.54,4.02,2.51,9.49,3.76,16.43,3.76s12.71-1.24,17.31-3.71c4.6-2.48,6.89-5.74,6.89-9.79,0-5.59-3.86-9.25-11.57-10.99,3.41-1.6,6.06-3.87,7.95-6.8,1.89-2.92,2.84-6.25,2.84-9.98,0-.55-.01-1.29-.16-2.25-.07-.47-.41-2.56-1.91-5.31-1.7-3.12-3.96-5.36-5.55-6.71h6.47c.51,0,.96-.18,1.35-.53.38-.35.58-.79.58-1.3v-1.83c0-.51-.19-.97-.58-1.35-.38-.38-.84-.58-1.35-.58ZM172.83,57.86c-1.32,1.77-3.1,2.65-5.35,2.65-2.96,0-5.54-2.2-7.76-6.6-2.22-4.4-3.33-9.24-3.33-14.51,0-2.95.64-5.3,1.93-7.04,1.29-1.74,3.02-2.6,5.21-2.6s4.08,1.13,5.88,3.37c1.8,2.25,3.15,4.98,4.05,8.2.9,3.22,1.35,6.4,1.35,9.54,0,2.89-.66,5.22-1.98,6.99Z"/><path class="cls-1" d="M33.43,94.83l-5.61,22.08h-3.48l-5.11-18.04-5.11,18.04h-3.48l-5.64-22.08h3.16l4.23,18.76,5.23-18.76h3.16l5.23,18.7,4.26-18.7h3.13Z"/><path class="cls-1" d="M50.9,108.93h-13.75c.06,1.96.62,3.43,1.68,4.42,1.05.98,2.34,1.47,3.87,1.47,1.38,0,2.53-.35,3.46-1.05.93-.7,1.5-1.63,1.71-2.8h3.04c-.21,1.19-.67,2.25-1.39,3.19-.72.94-1.66,1.67-2.8,2.19-1.15.52-2.44.78-3.88.78-1.65,0-3.11-.36-4.39-1.07-1.27-.71-2.27-1.73-2.99-3.05-.72-1.33-1.08-2.89-1.08-4.68s.36-3.36,1.08-4.7c.72-1.34,1.72-2.36,2.99-3.07s2.74-1.07,4.39-1.07,3.13.36,4.37,1.07c1.24.71,2.19,1.66,2.85,2.85.66,1.19.99,2.51.99,3.95,0,.61-.04,1.13-.13,1.57ZM47.52,104.35c-.48-.86-1.14-1.49-1.97-1.91-.84-.42-1.74-.63-2.73-.63-1.57,0-2.88.49-3.95,1.46-1.06.97-1.64,2.4-1.72,4.28h10.99c.06-1.27-.15-2.34-.63-3.2Z"/><path class="cls-1" d="M55.1,93.41c.36-.32.82-.49,1.41-.49s1.05.16,1.41.49.53.75.53,1.27-.18.95-.53,1.27c-.36.32-.83.49-1.41.49s-1.05-.16-1.41-.49c-.36-.32-.53-.75-.53-1.27s.18-.94.53-1.27ZM57.92,99.72v17.2h-2.85v-17.2h2.85Z"/><path class="cls-1" d="M74.1,100.75c1.16.84,1.97,1.95,2.43,3.35v-4.39h2.85v17.48c0,1.59-.33,3-1,4.23-.67,1.23-1.61,2.19-2.82,2.88s-2.62,1.03-4.23,1.03c-2.32,0-4.21-.56-5.67-1.68-1.46-1.12-2.39-2.63-2.79-4.53h2.82c.33,1.15.97,2.05,1.9,2.71.93.66,2.12.99,3.59.99,1.55,0,2.82-.5,3.84-1.49,1.01-.99,1.52-2.38,1.52-4.15v-4.67c-.46,1.4-1.27,2.52-2.43,3.35-1.16.84-2.57,1.25-4.24,1.25-1.52,0-2.88-.36-4.07-1.07-1.19-.71-2.13-1.73-2.8-3.05-.68-1.33-1.02-2.89-1.02-4.68s.34-3.36,1.02-4.7c.68-1.34,1.61-2.36,2.8-3.07,1.19-.71,2.55-1.07,4.07-1.07,1.67,0,3.09.42,4.24,1.25ZM66.46,103.71c-1.05,1.12-1.58,2.66-1.58,4.62s.53,3.5,1.58,4.62c1.05,1.12,2.46,1.67,4.21,1.67,1.13,0,2.13-.26,3.02-.78.89-.52,1.58-1.26,2.08-2.21.5-.95.75-2.05.75-3.3s-.25-2.36-.75-3.32c-.5-.96-1.2-1.7-2.08-2.21-.89-.51-1.9-.77-3.02-.77-1.75,0-3.16.56-4.21,1.68Z"/><path class="cls-1" d="M98.14,101.36c1.23,1.28,1.85,3.14,1.85,5.56v9.99h-2.85v-9.74c0-1.71-.44-3.03-1.32-3.95-.88-.92-2.07-1.38-3.57-1.38s-2.82.51-3.76,1.52c-.94,1.01-1.41,2.49-1.41,4.43v9.11h-2.85v-23.18h2.85v10.06c.44-1.4,1.22-2.47,2.33-3.23,1.12-.75,2.41-1.13,3.87-1.13,2,0,3.62.64,4.86,1.93Z"/><path class="cls-1" d="M112.89,114.41v2.51h-2.13c-1.75,0-3.06-.42-3.93-1.25-.87-.84-1.3-2.23-1.3-4.2v-9.27h-2.57v-2.47h2.57v-4.29h2.88v4.29h4.45v2.47h-4.45v9.33c0,1.11.2,1.86.61,2.27.41.41,1.11.61,2.11.61h1.75Z"/><path class="cls-1" d="M127.58,93.74v23.18h-2.85v-23.18h2.85Z"/><path class="cls-1" d="M144.7,100.57c1.3.71,2.33,1.73,3.07,3.07.74,1.34,1.11,2.9,1.11,4.7s-.37,3.36-1.11,4.68c-.74,1.33-1.76,2.34-3.07,3.05-1.31.71-2.78,1.07-4.43,1.07s-3.13-.36-4.43-1.07c-1.31-.71-2.33-1.73-3.09-3.05s-1.13-2.89-1.13-4.68.38-3.36,1.13-4.7c.75-1.34,1.78-2.36,3.09-3.07,1.3-.71,2.78-1.07,4.43-1.07s3.13.36,4.43,1.07ZM137.43,102.69c-.87.46-1.57,1.16-2.1,2.11-.53.95-.8,2.13-.8,3.52s.27,2.54.8,3.49c.53.95,1.23,1.66,2.1,2.11.87.46,1.81.69,2.83.69s1.97-.23,2.83-.69c.87-.46,1.57-1.16,2.1-2.11.53-.95.8-2.11.8-3.49s-.27-2.57-.8-3.52c-.53-.95-1.23-1.65-2.1-2.11-.87-.46-1.81-.69-2.83-.69s-1.97.23-2.83.69Z"/><path class="cls-1" d="M162.99,101.02c1.18,1.01,1.89,2.38,2.15,4.09h-2.73c-.13-1.02-.55-1.86-1.27-2.52-.72-.66-1.69-.99-2.9-.99-1.02,0-1.82.24-2.4.74-.57.49-.86,1.15-.86,1.99,0,.63.19,1.13.58,1.52.39.39.87.68,1.44.88.57.2,1.36.41,2.36.64,1.27.29,2.3.59,3.09.89.78.3,1.45.79,2,1.46.55.67.83,1.57.83,2.69,0,1.4-.53,2.54-1.58,3.41-1.06.88-2.46,1.32-4.21,1.32-2.05,0-3.72-.49-5.01-1.47-1.29-.98-2.06-2.35-2.29-4.1h2.76c.1,1.04.56,1.89,1.36,2.54.8.65,1.86.97,3.18.97.98,0,1.75-.25,2.3-.75.55-.5.83-1.16.83-1.97,0-.67-.2-1.2-.6-1.6s-.89-.7-1.47-.91c-.58-.21-1.39-.43-2.41-.66-1.27-.29-2.29-.59-3.05-.88-.76-.29-1.41-.76-1.94-1.39-.53-.64-.8-1.5-.8-2.59,0-1.44.53-2.6,1.6-3.49,1.07-.89,2.52-1.33,4.35-1.33,1.94,0,3.5.51,4.68,1.52Z"/><path class="cls-1" d="M179.5,101.02c1.18,1.01,1.89,2.38,2.15,4.09h-2.73c-.13-1.02-.55-1.86-1.27-2.52-.72-.66-1.69-.99-2.9-.99-1.02,0-1.82.24-2.4.74-.57.49-.86,1.15-.86,1.99,0,.63.19,1.13.58,1.52.39.39.87.68,1.44.88.57.2,1.36.41,2.36.64,1.27.29,2.3.59,3.09.89.78.3,1.45.79,2,1.46.55.67.83,1.57.83,2.69,0,1.4-.53,2.54-1.58,3.41-1.06.88-2.46,1.32-4.21,1.32-2.05,0-3.72-.49-5.01-1.47-1.29-.98-2.06-2.35-2.29-4.1h2.76c.1,1.04.56,1.89,1.36,2.54.8.65,1.86.97,3.18.97.98,0,1.75-.25,2.3-.75.55-.5.83-1.16.83-1.97,0-.67-.2-1.2-.6-1.6s-.89-.7-1.47-.91c-.58-.21-1.39-.43-2.41-.66-1.27-.29-2.29-.59-3.05-.88-.76-.29-1.41-.76-1.94-1.39-.53-.64-.8-1.5-.8-2.59,0-1.44.53-2.6,1.6-3.49,1.07-.89,2.52-1.33,4.35-1.33,1.94,0,3.5.51,4.68,1.52Z"/><path class="cls-1" d="M202.19,114.41v2.51h-2.13c-1.76,0-3.07-.42-3.93-1.25-.87-.84-1.3-2.23-1.3-4.2v-9.27h-2.57v-2.47h2.57v-4.29h2.88v4.29h4.45v2.47h-4.45v9.33c0,1.11.2,1.86.61,2.27.41.41,1.11.61,2.11.61h1.75Z"/><path class="cls-1" d="M219.89,101.36c1.23,1.28,1.85,3.14,1.85,5.56v9.99h-2.85v-9.74c0-1.71-.44-3.03-1.32-3.95-.88-.92-2.07-1.38-3.57-1.38s-2.82.51-3.76,1.52c-.94,1.01-1.41,2.49-1.41,4.43v9.11h-2.85v-23.18h2.85v10.06c.44-1.4,1.22-2.47,2.33-3.23,1.12-.75,2.41-1.13,3.87-1.13,2,0,3.62.64,4.85,1.93Z"/><path class="cls-1" d="M237.73,100.75c1.16.84,1.97,1.95,2.43,3.35v-4.39h2.85v17.2h-2.85v-4.39c-.46,1.4-1.27,2.52-2.43,3.35-1.16.84-2.57,1.25-4.25,1.25-1.52,0-2.88-.36-4.07-1.07-1.19-.71-2.13-1.73-2.8-3.05s-1.02-2.89-1.02-4.68.34-3.36,1.02-4.7,1.61-2.36,2.8-3.07c1.19-.71,2.55-1.07,4.07-1.07,1.67,0,3.09.42,4.25,1.25ZM230.09,103.71c-1.06,1.12-1.58,2.66-1.58,4.62s.53,3.5,1.58,4.62c1.05,1.12,2.46,1.67,4.21,1.67,1.13,0,2.13-.26,3.02-.78.89-.52,1.58-1.26,2.08-2.21.5-.95.75-2.05.75-3.3s-.25-2.36-.75-3.32c-.5-.96-1.19-1.7-2.08-2.21-.89-.51-1.89-.77-3.02-.77-1.75,0-3.16.56-4.21,1.68Z"/><path class="cls-1" d="M256.07,114.41v2.51h-2.13c-1.76,0-3.07-.42-3.93-1.25-.87-.84-1.3-2.23-1.3-4.2v-9.27h-2.57v-2.47h2.57v-4.29h2.88v4.29h4.45v2.47h-4.45v9.33c0,1.11.2,1.86.61,2.27.41.41,1.11.61,2.11.61h1.75Z"/><path class="cls-1" d="M291.53,99.72l-4.95,17.2h-3.07l-4.73-14-4.76,14h-3.1l-4.89-17.2h2.88l3.67,14.47,4.76-14.47h2.98l4.79,14.44,3.7-14.44h2.73Z"/><path class="cls-1" d="M306.73,100.57c1.3.71,2.33,1.73,3.07,3.07.74,1.34,1.11,2.9,1.11,4.7s-.37,3.36-1.11,4.68c-.74,1.33-1.76,2.34-3.07,3.05-1.3.71-2.78,1.07-4.43,1.07s-3.13-.36-4.43-1.07c-1.3-.71-2.33-1.73-3.08-3.05-.75-1.33-1.13-2.89-1.13-4.68s.38-3.36,1.13-4.7c.75-1.34,1.78-2.36,3.08-3.07,1.3-.71,2.78-1.07,4.43-1.07s3.13.36,4.43,1.07ZM299.47,102.69c-.87.46-1.57,1.16-2.1,2.11-.53.95-.8,2.13-.8,3.52s.27,2.54.8,3.49c.53.95,1.23,1.66,2.1,2.11.87.46,1.81.69,2.84.69s1.97-.23,2.83-.69c.87-.46,1.57-1.16,2.1-2.11.53-.95.8-2.11.8-3.49s-.27-2.57-.8-3.52c-.53-.95-1.23-1.65-2.1-2.11-.87-.46-1.81-.69-2.83-.69s-1.97.23-2.84.69Z"/><path class="cls-1" d="M320.28,100.42c1.09-.66,2.38-.99,3.88-.99v3.1h-.88c-1.61,0-2.92.41-3.95,1.24-1.02.82-1.54,2.19-1.54,4.09v9.05h-2.85v-17.2h2.85v3.48c.56-1.19,1.39-2.11,2.47-2.77Z"/><path class="cls-1" d="M336.73,116.92l-6.58-7.74v7.74h-2.85v-23.18h2.85v13.47l6.48-7.49h3.48l-7.71,8.55,7.89,8.65h-3.57Z"/><path class="cls-1" d="M352.56,101.02c1.18,1.01,1.9,2.38,2.15,4.09h-2.73c-.13-1.02-.55-1.86-1.27-2.52-.72-.66-1.69-.99-2.9-.99-1.02,0-1.82.24-2.4.74-.57.49-.86,1.15-.86,1.99,0,.63.19,1.13.58,1.52.39.39.87.68,1.44.88s1.36.41,2.36.64c1.27.29,2.3.59,3.09.89.78.3,1.45.79,2,1.46.55.67.83,1.57.83,2.69,0,1.4-.53,2.54-1.58,3.41-1.05.88-2.46,1.32-4.21,1.32-2.05,0-3.72-.49-5.01-1.47-1.3-.98-2.06-2.35-2.29-4.1h2.76c.1,1.04.56,1.89,1.36,2.54.8.65,1.86.97,3.18.97.98,0,1.75-.25,2.3-.75.55-.5.83-1.16.83-1.97,0-.67-.2-1.2-.59-1.6-.4-.4-.89-.7-1.47-.91-.59-.21-1.39-.43-2.41-.66-1.27-.29-2.29-.59-3.05-.88-.76-.29-1.41-.76-1.94-1.39-.53-.64-.8-1.5-.8-2.59,0-1.44.53-2.6,1.6-3.49,1.07-.89,2.52-1.33,4.35-1.33,1.94,0,3.5.51,4.68,1.52Z"/></svg>